<?xml version="1.0" standalone="no"?>
<!DOCTYPE svg PUBLIC "-//W3C//DTD SVG 1.1//EN" "http://www.w3.org/Graphics/SVG/1.1/DTD/svg11.dtd" >
<svg>
<metadata>
Created by FontForge 20120731 at Mon Jul  1 14:52:26 2019
 By www
(c) 1992 Unity Progress. Portions (c) 2004 The Monotype Corporation. Portions (c) 2004 Microsoft Corporation. All Rights Reserved.
</metadata>
<defs>
<font id="CordiaNew" horiz-adv-x="1493" >
  <font-face 
    font-family="Cordia New"
    font-weight="400"
    font-stretch="normal"
    units-per-em="4096"
    panose-1="2 11 3 4 2 2 2 2 2 4"
    ascent="3276"
    descent="-820"
    x-height="1392"
    cap-height="1921"
    bbox="-1851 -2000 3183 3678"
    underline-thickness="102"
    underline-position="-154"
    unicode-range="U+0020-25CC"
  />
    <missing-glyph />
    <glyph glyph-name="000a" horiz-adv-x="3072" 
d="M512 0v2560h2048v-2560h-2048zM576 64h1920v2432h-1920v-2432z" />
    <glyph glyph-name="glyph1" horiz-adv-x="0" 
 />
    <glyph glyph-name="glyph2" horiz-adv-x="746" 
 />
    <glyph glyph-name="space" unicode=" " horiz-adv-x="746" 
 />
    <glyph glyph-name="space" unicode="&#xa0;" horiz-adv-x="746" 
 />
    <glyph glyph-name="exclam" unicode="!" horiz-adv-x="894" 
d="M546 1490l-46 -1014h-107l-46 1014v431h199v-431zM561 0h-227v254h227v-254z" />
    <glyph glyph-name="quotedbl" unicode="&#x22;" horiz-adv-x="746" 
d="M650 1609l-41 -355h-116l-41 355v312h198v-312zM300 1609l-39 -355h-117l-39 355v312h195v-312z" />
    <glyph glyph-name="numbersign" unicode="#" 
d="M1419 562h-377l-118 -544h-118l118 544h-515l-119 -544h-118l118 544h-227v123h248l107 521h-355v120h381l113 548h123l-113 -548h506l119 548h125l-114 -548h216v-120h-241l-105 -521h346v-123zM1052 1206h-511l-110 -521h514z" />
    <glyph glyph-name="dollar" unicode="$" 
d="M788 -31v-240h-100v240q-500 16 -587 550l161 23q88 -407 426 -440v822q-143 39 -230 71t-159.5 91t-112 149.5t-39.5 207.5q0 149 63.5 258t183.5 174.5t294 78.5v115h100v-115q407 -36 508 -458l-165 -22q-67 296 -343 337v-748q341 -99 450 -224t109 -315
q0 -237 -147.5 -382.5t-411.5 -172.5zM688 1092v722q-384 -30 -384 -367q0 -67 20 -121t62.5 -97.5t117 -76.5t184.5 -60zM788 898v-797q402 56 402 409q0 86 -32.5 157t-103 121.5t-266.5 109.5z" />
    <glyph glyph-name="percent" unicode="%" horiz-adv-x="2386" 
d="M1817 1954l-1121 -2025h-136l1123 2025h134zM955 1447q0 -502 -395 -502q-92 0 -164.5 33.5t-124 100t-78.5 156.5t-27 202q0 229 104 373t290 144q189 0 292 -137.5t103 -369.5zM810 1443q0 385 -245 385q-254 0 -254 -379q0 -390 254 -390q245 0 245 384zM2211 431
q0 -502 -395 -502q-186 0 -289.5 135.5t-103.5 358.5q0 160 50 277t136 177.5t207 60.5q100 0 176.5 -39t125 -111.5t71 -161t22.5 -195.5zM2066 427q0 387 -246 387q-253 0 -253 -380q0 -389 253 -389q246 0 246 382z" />
    <glyph glyph-name="ampersand" unicode="&#x26;" horiz-adv-x="1790" 
d="M1713 111l-114 -142q-155 120 -307 296q-221 -296 -531 -296q-179 0 -317 76t-215.5 199t-77.5 285q0 80 22 150.5t67 134.5t128.5 129.5t231.5 148.5q-106 138 -158.5 239t-52.5 189q0 184 127 309t313 125q130 0 226.5 -54.5t151 -148t54.5 -218.5q0 -266 -415 -474
q177 -216 426 -506q34 64 79 157l68 180l165 -34q-87 -257 -191 -435l153 -162q53 -54 167 -148zM1086 1541q0 110 -72.5 185.5t-181.5 75.5q-111 0 -190 -75.5t-79 -184.5q0 -34 13.5 -77.5t45 -95.5t131.5 -188q333 170 333 360zM1174 392q-256 265 -485 580
q-222 -123 -291.5 -217t-69.5 -197q0 -175 125.5 -307t293.5 -132q245 0 427 273z" />
    <glyph glyph-name="quotesingle" unicode="'" horiz-adv-x="596" 
d="M390 1608l-39 -351h-115l-39 351v313h193v-313z" />
    <glyph glyph-name="parenleft" unicode="(" horiz-adv-x="894" 
d="M788 -430h-129q-456 626 -456 1250q0 214 43 408.5t147 410.5t266 450h119q-403 -637 -403 -1279q0 -645 413 -1240z" />
    <glyph glyph-name="parenright" unicode=")" horiz-adv-x="894" 
d="M236 -430h-118q402 641 402 1280q0 644 -413 1239h129q456 -626 456 -1249q0 -349 -116 -647.5t-340 -622.5z" />
    <glyph glyph-name="asterisk" unicode="*" horiz-adv-x="1044" 
d="M933 1597l-166 -47l-166 -39l112 -134l115 -133l-115 -87l-100 146l-94 150l-181 -296l-119 87l106 133l117 134l-172 39l-168 47l49 137l158 -65l163 -72l-30 357h149l-22 -357l157 72l161 65z" />
    <glyph glyph-name="plus" unicode="+" horiz-adv-x="1772" 
d="M1583 883h-640v-642h-123v642h-642v122h642v641h123v-641h640v-122z" />
    <glyph glyph-name="comma" unicode="," horiz-adv-x="746" 
d="M326 -358l-69 96q65 49 91 99t27 163h-105v254h228v-254q0 -233 -172 -358z" />
    <glyph glyph-name="hyphen" unicode="-" horiz-adv-x="894" 
d="M799 661h-702v169h702v-169z" />
    <glyph glyph-name="period" unicode="." horiz-adv-x="746" 
d="M491 0h-228v254h228v-254z" />
    <glyph glyph-name="slash" unicode="/" horiz-adv-x="746" 
d="M753 1954l-626 -2002h-126l628 2002h124z" />
    <glyph glyph-name="zero" unicode="0" 
d="M1347 943q0 -976 -607 -976q-608 0 -608 941q0 271 36 464t113 312.5t191.5 178t267.5 58.5q607 0 607 -978zM1179 943q0 846 -436 846q-114 0 -198.5 -50.5t-140 -153.5t-78 -261.5t-22.5 -390.5q0 -200 19 -345.5t67.5 -254t139 -169t218.5 -60.5q431 0 431 839z" />
    <glyph glyph-name="one" unicode="1" 
d="M953 0h-163v1605q-218 -206 -486 -308v144q410 225 539 480h110v-1921z" />
    <glyph glyph-name="two" unicode="2" 
d="M1338 0h-1242q11 95 44 184t155 226.5t353 316.5q161 125 248 199.5t150 152t90.5 151t27.5 155.5q0 120 -53 209t-147.5 141t-219.5 52q-364 0 -433 -419l-172 24q28 248 190.5 388.5t422.5 140.5q255 0 420 -148.5t165 -382.5q0 -140 -62 -263.5t-177.5 -229
t-370.5 -299.5q-306 -232 -416 -443h1027v-155z" />
    <glyph glyph-name="three" unicode="3" 
d="M131 486l160 24q91 -408 438 -408q133 0 231.5 59t156 161t57.5 238q0 182 -116.5 290t-305.5 108q-64 0 -172 -22l18 144q148 0 232 26.5t142.5 74.5t87.5 113.5t29 149.5q0 152 -102.5 247.5t-260.5 95.5q-308 0 -406 -377l-165 29q119 482 570 482q244 0 391 -131.5
t147 -357.5q0 -270 -283 -401q374 -95 374 -466q0 -269 -173.5 -433.5t-450.5 -164.5q-493 0 -599 519z" />
    <glyph glyph-name="four" unicode="4" 
d="M1361 478h-263v-478h-161v478h-890v147l923 1296h128v-1296h263v-147zM937 625v1029l-731 -1029h731z" />
    <glyph glyph-name="five" unicode="5" 
d="M131 474l165 20q82 -390 444 -390q116 0 213.5 54t167.5 172.5t70 285.5q0 208 -123.5 342t-317.5 134q-226 0 -442 -211l-138 19l184 995h922v-151h-800l-122 -655q213 148 422 148q249 0 418.5 -176.5t169.5 -430.5q0 -134 -48 -255t-131.5 -212t-206 -143.5
t-264.5 -52.5q-456 0 -583 507z" />
    <glyph glyph-name="six" unicode="6" 
d="M1316 1475l-163 -17q-86 328 -362 328q-81 0 -150.5 -26t-125.5 -77t-94.5 -116t-62.5 -129.5t-43.5 -183t-30.5 -320.5q207 278 515 278q247 0 404 -167t157 -427q0 -193 -78.5 -338.5t-211.5 -229t-311 -83.5q-161 0 -283.5 62t-204.5 185t-117.5 285t-35.5 393
q0 339 72 558.5t227.5 345t380.5 125.5q422 0 518 -446zM1181 600q0 206 -113 334.5t-298 128.5q-191 0 -318.5 -126.5t-127.5 -318.5q0 -208 124 -362t315 -154q186 0 302 144.5t116 353.5z" />
    <glyph glyph-name="seven" unicode="7" 
d="M1359 1789q-362 -416 -537 -848t-214 -941h-177q14 221 57 428t114 401t178 385t370 535h-1006v146h1215v-106z" />
    <glyph glyph-name="eight" unicode="8" 
d="M473 1034q-274 123 -274 393q0 145 70.5 255t191.5 174.5t279 64.5q159 0 280.5 -65t191.5 -174.5t70 -254.5q0 -270 -274 -393q351 -121 351 -480q0 -289 -185.5 -438t-433.5 -149q-182 0 -316 67.5t-218 209.5t-84 310q0 170 80.5 291t270.5 189zM1115 1426
q0 107 -48.5 187.5t-132 127t-195.5 46.5t-195.5 -47.5t-131.5 -127.5t-48 -186q0 -149 108 -241.5t267 -92.5t267.5 93t108.5 241zM1188 539q0 129 -54.5 221.5t-154.5 143.5t-240 51t-240 -51t-154.5 -143.5t-54.5 -221.5q0 -200 123 -317.5t326 -117.5q204 0 326.5 117
t122.5 318z" />
    <glyph glyph-name="nine" unicode="9" 
d="M166 411l163 19q86 -329 362 -329q156 0 274.5 104t166 259t67.5 489q-208 -277 -516 -277q-246 0 -403 167t-157 425q0 284 169 468.5t433 184.5q196 0 335.5 -94t221.5 -289t82 -542q0 -339 -72.5 -559t-227.5 -345t-380 -125q-422 0 -518 444zM1160 1270
q0 104 -31.5 195t-93.5 167.5t-141 115t-175 38.5q-186 0 -302 -145.5t-116 -353.5q0 -206 113 -334.5t298 -128.5q192 0 320 126.5t128 319.5z" />
    <glyph glyph-name="colon" unicode=":" horiz-adv-x="746" 
d="M491 1136h-228v256h228v-256zM491 0h-228v254h228v-254z" />
    <glyph glyph-name="semicolon" unicode=";" horiz-adv-x="746" 
d="M498 1136h-228v256h228v-256zM326 -358l-69 96q65 49 91 99t27 163h-105v254h228v-254q0 -233 -172 -358z" />
    <glyph glyph-name="less" unicode="&#x3c;" horiz-adv-x="1772" 
d="M1584 296l-1407 592v108l1407 596v-132l-1246 -518l1246 -515v-131z" />
    <glyph glyph-name="equal" unicode="=" horiz-adv-x="1772" 
d="M1584 1207h-1407v116h1407v-116zM1584 563h-1407v122h1407v-122z" />
    <glyph glyph-name="greater" unicode="&#x3e;" horiz-adv-x="1772" 
d="M1584 891l-1407 -595v131l1246 518l-1246 515v132l1407 -592v-109z" />
    <glyph glyph-name="question" unicode="?" horiz-adv-x="1342" 
d="M734 474h-167v110q3 69 15.5 128t35.5 109t72.5 109.5t125.5 128.5q238 214 238 384q0 151 -108 255.5t-262 104.5q-295 0 -390 -390l-179 28q123 513 585 513q162 0 282 -65t187 -178t67 -266q0 -233 -271 -486q-85 -80 -140 -146.5t-73 -148t-18 -190.5zM773 0h-227
v253h227v-253z" />
    <glyph glyph-name="at" unicode="@" horiz-adv-x="2146" 
d="M2154 62q-165 -260 -423.5 -387.5t-590.5 -127.5q-208 0 -385.5 52.5t-320.5 153.5t-237.5 241t-146 313.5t-51.5 366.5q0 344 149.5 607.5t398 404.5t589.5 141q295 0 506 -111t340.5 -335.5t129.5 -505.5q0 -181 -47 -330t-140.5 -265t-230 -198t-258.5 -82
q-158 0 -158 139q0 37 10 103q-207 -242 -447 -242q-100 0 -181 39t-144.5 118t-96 179t-32.5 218q0 120 32.5 238t96 227.5t147 183.5t187.5 115.5t205 41.5q122 0 224.5 -58.5t176.5 -191.5l44 217h164l-223 -1052q-15 -71 -15 -105q0 -52 63 -52q41 0 88 18.5t126 73.5
t152 155.5t110 228t37 281.5q0 182 -61.5 340.5t-171 273.5t-272.5 173.5t-369 58.5q-450 0 -735.5 -295t-285.5 -755q0 -310 130 -537t360 -355.5t544 -128.5q266 0 484 94t396 318h133zM1394 871q0 163 -94.5 269t-242.5 106q-221 0 -362.5 -222t-141.5 -480
q0 -179 91.5 -300t245.5 -121q98 0 187.5 64t166.5 184t113.5 243.5t36.5 256.5z" />
    <glyph glyph-name="A" unicode="A" horiz-adv-x="1790" 
d="M1789 0h-205l-250 612h-896l-241 -612h-197l781 1921h190zM1272 763l-398 967l-380 -967h778z" />
    <glyph glyph-name="B" unicode="B" horiz-adv-x="1790" 
d="M231 0v1921h724q180 0 313.5 -56.5t207 -166.5t73.5 -263q0 -125 -61.5 -232t-213.5 -193q197 -64 282 -184.5t85 -286.5q0 -162 -66 -279t-205.5 -188.5t-334.5 -71.5h-804zM417 1759v-683h562q121 0 207.5 43t134 120t47.5 185q0 86 -29.5 150.5t-86 106t-146 60
t-222.5 18.5h-467zM417 913v-758h599q128 0 225 42t154.5 128t57.5 214q0 172 -117.5 273t-312.5 101h-606z" />
    <glyph glyph-name="C" unicode="C" horiz-adv-x="1938" 
d="M1820 604q-191 -637 -797 -637q-204 0 -361.5 64t-269 191.5t-178.5 323.5t-67 412q0 438 240 717t643 279q271 0 464.5 -135.5t299.5 -426.5l-174 -48q-160 459 -578 459q-325 0 -515 -239.5t-190 -608.5q0 -414 192 -626t485 -212q482 0 640 532z" />
    <glyph glyph-name="D" unicode="D" horiz-adv-x="1938" 
d="M233 0v1921h738q277 0 461.5 -130.5t267.5 -348.5t83 -470q0 -461 -213.5 -716.5t-598.5 -255.5h-738zM415 1760v-1599h452q166 0 283.5 27t225 126t162.5 265.5t55 405.5q0 775 -726 775h-452z" />
    <glyph glyph-name="E" unicode="E" horiz-adv-x="1639" 
d="M1510 0h-1268v1921h1228v-162h-1045v-690h967v-158h-967v-752h1085v-159z" />
    <glyph glyph-name="F" unicode="F" 
d="M1369 1761h-954v-697h813v-157h-813v-907h-182v1921h1136v-160z" />
    <glyph glyph-name="G" unicode="G" horiz-adv-x="2087" 
d="M1917 244q-380 -275 -798 -275q-153 0 -284.5 32.5t-242 97.5t-202 163.5t-139.5 195t-72 216.5t-24 263q0 319 116 545.5t328 349t511 122.5q305 0 503.5 -134.5t276.5 -413.5l-177 -54q-148 452 -615 452q-349 0 -552.5 -231t-203.5 -618q0 -235 85 -421t256.5 -300.5
t418.5 -114.5q350 0 636 210v470h-611v158h790v-713z" />
    <glyph glyph-name="H" unicode="H" horiz-adv-x="1938" 
d="M1700 0h-177v933h-1114v-933h-180v1921h180v-829h1114v829h177v-1921z" />
    <glyph glyph-name="I" unicode="I" horiz-adv-x="746" 
d="M468 0h-181v1921h181v-1921z" />
    <glyph glyph-name="J" unicode="J" horiz-adv-x="1342" 
d="M66 529l165 19q28 -430 353 -430q340 0 340 430v1373h182v-1373q0 -579 -541 -579q-472 0 -499 560z" />
    <glyph glyph-name="K" unicode="K" horiz-adv-x="1790" 
d="M1785 0h-241l-779 1026l-347 -314v-712h-182v1921h182v-1004l1085 1004h246l-865 -786z" />
    <glyph glyph-name="L" unicode="L" 
d="M1382 0h-1149v1921h181v-1764h968v-157z" />
    <glyph glyph-name="M" unicode="M" horiz-adv-x="2235" 
d="M1997 0h-182l30 1724l-657 -1724h-152l-647 1724l29 -1724h-180v1921h255l619 -1663l626 1663h259v-1921z" />
    <glyph glyph-name="N" unicode="N" horiz-adv-x="1938" 
d="M1698 0h-192l-1108 1637l15 -1637h-182v1921h182l1120 -1656l-14 1656h179v-1921z" />
    <glyph glyph-name="O" unicode="O" horiz-adv-x="2087" 
d="M1943 960q0 -450 -238 -721.5t-657 -271.5q-276 0 -472.5 120t-308.5 343t-112 530q0 449 239 721.5t654 272.5q280 0 478 -122t307.5 -344.5t109.5 -527.5zM1753 960q0 378 -188 611t-517 233q-331 0 -517 -234t-186 -610q0 -373 189 -608t514 -235q215 0 369 102.5
t245 294t91 446.5z" />
    <glyph glyph-name="P" unicode="P" horiz-adv-x="1639" 
d="M425 812v-812h-183v1921h667q293 0 456 -143.5t163 -406.5q0 -117 -41 -220t-116 -180.5t-196 -118t-266 -40.5h-484zM425 1755v-784h433q480 0 480 394q0 390 -480 390h-433z" />
    <glyph glyph-name="Q" unicode="Q" horiz-adv-x="2087" 
d="M1985 0l-51 -127q-173 61 -396 223q-208 -129 -490 -129q-208 0 -372 68t-283 203.5t-178.5 316t-59.5 405.5q0 449 239 721.5t654 272.5q278 0 475.5 -119.5t308.5 -343t111 -532.5q0 -483 -284 -768q162 -115 326 -191zM1384 206q-138 106 -320 164l42 134
q191 -42 404 -209q243 230 243 665q0 259 -91 450t-245 292.5t-369 101.5q-327 0 -515 -237t-188 -607q0 -373 189 -608t514 -235q173 0 336 89z" />
    <glyph glyph-name="R" unicode="R" horiz-adv-x="1790" 
d="M1786 0h-232l-259 406q-161 252 -230 325t-162.5 112.5t-206.5 39.5h-277v-883h-183v1921h808q184 0 313.5 -61.5t198.5 -175t69 -275.5q0 -459 -557 -513q205 -105 352 -331zM419 1760v-720h506q509 0 509 367q0 79 -26.5 143t-86 116t-154 73t-233.5 21h-515z" />
    <glyph glyph-name="S" unicode="S" horiz-adv-x="1639" 
d="M122 578l181 16q22 -236 159 -356.5t360 -120.5q165 0 279 49.5t176 147t62 206.5q0 290 -503 382q-341 62 -488.5 189t-147.5 350q0 237 172.5 375t438.5 138q298 0 463.5 -133.5t181.5 -406.5l-178 -8q-32 398 -452 398q-194 0 -321.5 -93t-127.5 -254q0 -275 460 -367
q340 -69 508 -194t168 -364q0 -127 -45 -228.5t-137.5 -178.5t-217.5 -117.5t-278 -40.5q-655 0 -713 611z" />
    <glyph glyph-name="T" unicode="T" 
d="M1420 1753h-589v-1753h-184v1753h-587v168h1360v-168z" />
    <glyph glyph-name="U" unicode="U" horiz-adv-x="1938" 
d="M229 1921h185v-1230q0 -574 553 -574q548 0 548 571v1233h185v-1215q0 -739 -729 -739q-742 0 -742 738v1216z" />
    <glyph glyph-name="V" unicode="V" horiz-adv-x="1639" 
d="M1629 1921l-717 -1921h-189l-703 1921h195l605 -1724l627 1724h182z" />
    <glyph glyph-name="W" unicode="W" horiz-adv-x="2386" 
d="M2349 1921l-516 -1921h-181l-461 1718l-472 -1718h-179l-512 1921h186l416 -1664l447 1664h222l445 -1654l430 1654h175z" />
    <glyph glyph-name="X" unicode="X" horiz-adv-x="1639" 
d="M1634 0h-221l-574 856l-606 -856h-217l723 1002l-620 919h215l505 -771l553 771h188l-638 -899z" />
    <glyph glyph-name="Y" unicode="Y" horiz-adv-x="1639" 
d="M1627 1921l-723 -1092v-829h-182v829l-700 1092h214l587 -921l600 921h204z" />
    <glyph glyph-name="Z" unicode="Z" horiz-adv-x="1639" 
d="M1561 0h-1494v169l1242 1596h-1133v156h1357v-156l-1254 -1608h1282v-157z" />
    <glyph glyph-name="bracketleft" unicode="[" horiz-adv-x="894" 
d="M824 -401h-617v2460h617v-136h-454v-2187h454v-137z" />
    <glyph glyph-name="backslash" unicode="\" horiz-adv-x="746" 
d="M753 -48h-124l-628 2002h125z" />
    <glyph glyph-name="bracketright" unicode="]" horiz-adv-x="894" 
d="M687 -401h-618v137h456v2187h-456v136h618v-2460z" />
    <glyph glyph-name="asciicircum" unicode="^" horiz-adv-x="1772" 
d="M1466 1249l-85 -70l-502 604l-503 -604l-82 70l585 705z" />
    <glyph glyph-name="underscore" unicode="_" horiz-adv-x="1342" 
d="M1358 -335h-1374v133h1374v-133z" />
    <glyph glyph-name="grave" unicode="`" horiz-adv-x="894" 
d="M596 1574h-133l-295 347h260z" />
    <glyph glyph-name="a" unicode="a" 
d="M1360 0h-178q-39 98 -51 212q-226 -243 -569 -243q-125 0 -223.5 43.5t-157.5 130.5t-59 212q0 88 27.5 157.5t83.5 122t151 90t342 71.5q275 38 389 81q0 119 -6.5 183t-44.5 120t-117 86t-195 30q-361 0 -434 -309l-166 25q77 411 599 411q164 0 275.5 -37.5t166 -106
t71 -169.5t16.5 -278l-5 -392q-2 -157 14.5 -241t70.5 -199zM1115 658v90q-139 -53 -440 -105q-159 -28 -232.5 -57.5t-111 -85.5t-37.5 -132q0 -114 84.5 -183.5t217.5 -69.5q78 0 154 20.5t149 61t122 98t71.5 147.5t22.5 216z" />
    <glyph glyph-name="b" unicode="b" horiz-adv-x="1639" 
d="M379 211v-211h-163v1921h163v-756q209 258 524 258q295 0 456 -203t161 -512q0 -334 -167 -536.5t-465 -202.5q-306 0 -509 242zM1351 693q0 260 -124.5 427t-342.5 167q-238 0 -372.5 -164t-134.5 -449q0 -265 133 -417.5t364 -152.5q110 0 197 42t151 126t96.5 189.5
t32.5 231.5z" />
    <glyph glyph-name="c" unicode="c" 
d="M1367 451q-79 -237 -227 -359.5t-394 -122.5q-189 0 -324.5 77t-219 246.5t-83.5 404.5q0 151 35.5 273.5t84 198t114.5 129t158.5 89.5t241.5 36q455 0 594 -425l-172 -26q-91 313 -428 313q-108 0 -192.5 -39.5t-144 -117.5t-89.5 -181.5t-30 -232.5q0 -277 120.5 -445
t341.5 -168q318 0 453 375z" />
    <glyph glyph-name="d" unicode="d" horiz-adv-x="1639" 
d="M1432 0h-162v211q-220 -242 -523 -242q-144 0 -257 51t-196 153t-124.5 236t-41.5 299q0 311 162 513t460 202q324 0 520 -258v756h162v-1921zM1272 700q0 266 -137.5 426.5t-370.5 160.5q-217 0 -341 -167.5t-124 -426.5q0 -252 129 -420.5t348 -168.5q236 0 366 157
t130 439z" />
    <glyph glyph-name="e" unicode="e" 
d="M1365 675h-1071q4 -270 127.5 -421.5t341.5 -151.5q304 0 425 338l160 -27q-82 -238 -229.5 -341t-365.5 -103q-295 0 -462 195t-167 532t168 532t464 195q604 0 609 -748zM1188 810q-38 482 -436 482q-181 0 -304.5 -125t-148.5 -357h889z" />
    <glyph glyph-name="f" unicode="f" horiz-adv-x="746" 
d="M808 1921l-27 -132q-94 14 -136 14q-70 0 -116.5 -21t-72.5 -72.5t-26 -196.5v-121h291v-124h-291v-1268h-163v1268h-222v124h222v145q0 145 29 228.5t110.5 136t200.5 52.5q70 0 201 -33z" />
    <glyph glyph-name="g" unicode="g" horiz-adv-x="1639" 
d="M189 -155l160 -30q52 -246 386 -246q535 0 535 508v135q-120 -147 -243.5 -195t-276.5 -48q-141 0 -252.5 49t-195.5 148t-127 231t-43 294q0 220 82 390.5t216 256t321 85.5q160 0 286.5 -58t232.5 -208v235h161v-1281q0 -232 -70.5 -382.5t-220 -222t-380.5 -71.5
q-543 0 -571 410zM1270 680q0 273 -129 439t-359 166q-118 0 -203.5 -42t-149 -119.5t-95 -184t-31.5 -242.5q0 -263 127 -430t350 -167q133 0 239 58t178.5 189t72.5 333z" />
    <glyph glyph-name="h" unicode="h" 
d="M1291 0h-165v864q0 225 -87 320.5t-236 95.5q-80 0 -149.5 -27t-128.5 -80.5t-93.5 -123.5t-48 -153t-13.5 -293v-603h-164v1921h164v-735q187 237 448 237q473 0 473 -515v-908z" />
    <glyph glyph-name="i" unicode="i" horiz-adv-x="596" 
d="M376 1676h-164v245h164v-245zM376 0h-164v1392h164v-1392z" />
    <glyph glyph-name="j" unicode="j" horiz-adv-x="596" 
d="M376 1680h-164v241h164v-241zM-83 -535l33 142q58 -15 102 -15q53 0 88 20.5t53.5 64.5t18.5 192v1523h164v-1503q0 -120 -6 -190.5t-38 -133t-94 -96.5t-153 -34q-55 0 -168 30z" />
    <glyph glyph-name="k" unicode="k" horiz-adv-x="1342" 
d="M1330 0h-212l-531 761l-208 -187v-574h-164v1921h164v-1175l678 646h230l-579 -521z" />
    <glyph glyph-name="l" unicode="l" horiz-adv-x="596" 
d="M376 0h-164v1921h164v-1921z" />
    <glyph glyph-name="m" unicode="m" horiz-adv-x="2235" 
d="M2022 0h-163v862q0 191 -31 267.5t-97 115t-157 38.5q-128 0 -214.5 -71.5t-122 -196t-35.5 -330.5v-685h-163v879q0 145 -24.5 227t-89 127t-163.5 45q-175 0 -280 -144.5t-105 -391.5v-742h-163v1392h163v-201q174 232 426 232q266 0 370 -232q186 232 436 232
q413 0 413 -476v-947z" />
    <glyph glyph-name="n" unicode="n" 
d="M1291 0h-165v864q0 225 -87 320.5t-236 95.5q-80 0 -149.5 -27t-128.5 -80.5t-93.5 -123.5t-48 -153t-13.5 -293v-603h-164v1392h164v-206q187 237 448 237q473 0 473 -515v-908z" />
    <glyph glyph-name="o" unicode="o" 
d="M1360 693q0 -344 -162.5 -534t-459.5 -190q-143 0 -256 50t-196.5 149t-125.5 229t-42 290q0 166 36.5 296.5t110 226t185.5 154.5t289 59q284 0 452.5 -184.5t168.5 -545.5zM1191 693q0 187 -55 321.5t-153 204t-239 69.5q-217 0 -335.5 -159.5t-118.5 -428.5
q0 -266 120.5 -432.5t335.5 -166.5q100 0 179 36.5t139.5 112.5t93.5 188.5t33 254.5z" />
    <glyph glyph-name="p" unicode="p" horiz-adv-x="1639" 
d="M379 211v-743h-163v1924h163v-227q215 258 523 258q138 0 247.5 -44.5t192.5 -137t130.5 -229t47.5 -304.5q0 -334 -167 -536.5t-465 -202.5q-306 0 -509 242zM1351 693q0 181 -60 316t-162 205.5t-245 70.5q-118 0 -210 -39t-159.5 -119t-102.5 -194t-35 -259
q0 -265 133 -417.5t364 -152.5q110 0 197 42t151 126t96.5 189.5t32.5 231.5z" />
    <glyph glyph-name="q" unicode="q" horiz-adv-x="1639" 
d="M1432 -532h-162v743q-220 -242 -522 -242q-141 0 -253 49t-196 149.5t-127.5 236.5t-43.5 304q0 311 162 513t460 202q324 0 520 -258v227h162v-1924zM1272 700q0 266 -137.5 426.5t-370.5 160.5q-217 0 -341 -167.5t-124 -426.5q0 -252 129 -420.5t348 -168.5
q236 0 366 157t130 439z" />
    <glyph glyph-name="r" unicode="r" horiz-adv-x="894" 
d="M929 1339l-63 -141q-126 53 -187 53q-49 0 -89.5 -15.5t-76.5 -49.5t-62 -79t-39 -99.5t-24 -161t-11 -192.5v-654h-163v1392h144v-282q103 313 325 313q114 0 246 -84z" />
    <glyph glyph-name="s" unicode="s" horiz-adv-x="1342" 
d="M100 377l166 27q37 -159 144 -231t264 -72q108 0 192.5 36t128.5 94.5t44 139.5q0 74 -50 127t-133.5 83t-236.5 62q-476 100 -476 390q0 181 140.5 285.5t352.5 104.5q422 0 516 -368l-160 -24q-45 147 -121.5 202.5t-231.5 55.5q-98 0 -176 -29.5t-116.5 -78.5
t-38.5 -117t35 -115.5t135.5 -85.5t256.5 -74q296 -68 386 -165.5t90 -229.5q0 -133 -64.5 -226.5t-188 -147t-290.5 -53.5q-107 0 -195 20.5t-160 63.5t-126 116t-87 210z" />
    <glyph glyph-name="t" unicode="t" horiz-adv-x="746" 
d="M723 0q-107 -22 -173 -22q-95 0 -163 31t-101.5 95.5t-33.5 230.5v933h-194v124h194v356l165 105v-461h262v-124h-262v-912q0 -97 12.5 -145.5t48.5 -72t95 -23.5q45 0 129 17z" />
    <glyph glyph-name="u" unicode="u" 
d="M1276 0h-165v206q-183 -237 -448 -237q-472 0 -472 515v908h165v-864q0 -227 88 -322.5t235 -95.5q98 0 182.5 41t150 125.5t82.5 196.5t17 315v604h165v-1392z" />
    <glyph glyph-name="v" unicode="v" horiz-adv-x="1342" 
d="M1304 1392l-557 -1392h-152l-557 1392h174l458 -1192l461 1192h173z" />
    <glyph glyph-name="w" unicode="w" horiz-adv-x="1938" 
d="M1916 1392l-465 -1392h-169l-318 1143l-317 -1143h-169l-466 1392h171l374 -1188l333 1188h149l333 -1188l375 1188h169z" />
    <glyph glyph-name="x" unicode="x" horiz-adv-x="1342" 
d="M1318 0h-202l-444 605l-445 -605h-205l555 726l-515 666h204l406 -534l404 534h203l-515 -650z" />
    <glyph glyph-name="y" unicode="y" horiz-adv-x="1342" 
d="M1320 1392l-549 -1392l-109 -276q-114 -289 -323 -289q-51 0 -156 26l-18 164q98 -23 147 -23q79 0 114.5 31t71.5 122l97 245l-548 1392h178l458 -1203l475 1203h162z" />
    <glyph glyph-name="z" unicode="z" horiz-adv-x="1342" 
d="M1280 0h-1224v143l954 1112h-899v137h1126v-110l-966 -1139h1009v-143z" />
    <glyph glyph-name="braceleft" unicode="{" horiz-adv-x="894" 
d="M767 -430q-120 0 -204.5 38.5t-131 124.5t-46.5 291v277q0 173 -29 268.5t-82.5 134t-142.5 39.5v173q125 0 189.5 104t64.5 330v277q0 205 44 294.5t131 128.5t207 39v-148q-86 -2 -138.5 -30t-74.5 -88.5t-22 -315.5q0 -412 -78 -522t-181 -156q62 -29 109 -70
t80 -96.5t51.5 -130t18.5 -304.5v-117q0 -157 19 -248t57 -115t159 -30v-148z" />
    <glyph glyph-name="bar" unicode="|" horiz-adv-x="596" 
d="M360 -532h-133v2453h133v-2453z" />
    <glyph glyph-name="braceright" unicode="}" horiz-adv-x="894" 
d="M763 744q-253 0 -253 -433v-159q0 -156 -6.5 -243t-44 -169.5t-110 -126t-177.5 -43.5q-21 0 -45 2v148q75 1 130 25.5t80.5 82.5t25.5 325q0 199 16.5 320.5t49.5 180.5t80.5 103t111.5 74q-80 37 -135.5 97t-83 133.5t-34 149t-6.5 221.5l1 116q0 209 -16 268.5
t-70.5 90t-149.5 35.5v147q123 0 206 -38t130.5 -121.5t47.5 -294.5l-1 -276q0 -183 34 -282.5t91 -128.5t128 -31v-173z" />
    <glyph glyph-name="asciitilde" unicode="~" horiz-adv-x="1772" 
d="M1583 926q-159 -105 -230.5 -127.5t-135.5 -22.5q-37 0 -86.5 9.5t-98.5 28t-163 72.5q-216 101 -316 101q-159 0 -373 -176v146q213 155 368 155q82 0 141.5 -19.5t198.5 -84.5q224 -106 328 -106q148 0 367 179v-155z" />
    <glyph glyph-name="DEL" horiz-adv-x="0" 
d="M0 0h-1229v2048h1229v-2048z" />
    <glyph glyph-name="glyph99" horiz-adv-x="1565" 
d="M1413 1716q-28 -233 -52.5 -274t-90.5 -41q-39 0 -244 49q-200 49 -273 49q-319 0 -413 -233q114 61 328 61q252 0 449.5 -66t197.5 -188l-168 -1073h-143l-181 516q-6 32 -12 70q0 13 4 82q-70 -140 -230 -140q-62 0 -116 30.5t-95.5 96t-41.5 152.5q0 110 76 188
t188 78q193 0 256 -192l168 -516l33 -177h12l12 271l86 590q0 66 -189.5 102.5t-379.5 36.5q-208 0 -401 -37l4 41q18 184 166.5 317t402.5 133q156 0 359 -54q87 -23 116 -23q12 3 29 172zM725 799q0 127 -127 127q-51 0 -89 -37t-38 -90q0 -127 127 -127q51 0 89 37t38 90
z" />
    <glyph glyph-name="glyph100" horiz-adv-x="0" 
d="M-541 1905q-245 90 -462 129t-455 39q-225 0 -393 -21q0 62 39 147.5t95 147t131 102.5t168 61.5t205 20.5q156 0 276.5 -52t208.5 -129t137.5 -176t49.5 -269zM-655 2032q-59 168 -222.5 262t-379.5 94q-300 0 -455 -234q35 17 139 38t255 21q261 0 422 -60t241 -121z
" />
    <glyph glyph-name="glyph101" horiz-adv-x="0" 
d="M-541 1905q-245 90 -462 129t-455 39q-225 0 -393 -21q0 83 71.5 208.5t213.5 198t366 72.5q159 0 314 -76.5t239 -205.5q-37 74 -37 172v381h143v-897zM-655 2032q-59 168 -222.5 262t-379.5 94q-300 0 -455 -234q35 17 139 38t255 21q261 0 422 -60t241 -121z" />
    <glyph glyph-name="glyph102" horiz-adv-x="0" 
d="M-541 1905q-245 90 -462 129t-455 39q-225 0 -393 -21q0 60 38 144.5t95 147t133.5 104t172.5 62.5t212 21q122 0 184 -31q-16 29 -16 85q0 68 28.5 118t80 78.5t120.5 28.5q102 0 168 -63.5t66 -166.5q0 -179 -185 -217q65 -30 139 -141.5t74 -316.5zM-692 2568
q0 119 -115 119q-111 0 -111 -111q0 -118 115 -118q111 0 111 110zM-655 2032q-59 168 -222.5 262t-379.5 94q-300 0 -455 -234q35 17 139 38t255 21q261 0 422 -60t241 -121z" />
    <glyph glyph-name="glyph103" horiz-adv-x="0" 
d="M-541 1905q-245 90 -462 129t-455 39q-225 0 -393 -21q0 81 67 200t212.5 199t322.5 80q155 0 258 -38v309h143v-373q18 0 98.5 -71.5t93.5 -111.5q-28 131 -28 175v381h143v-897zM-655 2032q-59 168 -222.5 262t-379.5 94q-300 0 -455 -234q35 17 139 38t255 21
q261 0 422 -60t241 -121z" />
    <glyph glyph-name="uni2026" unicode="&#x2026;" horiz-adv-x="2684" 
d="M2351 0h-228v254h228v-254zM1456 0h-227v254h227v-254zM561 0h-227v254h227v-254z" />
    <glyph glyph-name="glyph105" horiz-adv-x="0" 
d="M-541 1896h-151v574h151v-574z" />
    <glyph glyph-name="glyph106" horiz-adv-x="0" 
d="M-254 2466q-103 -318 -331 -460t-517 -142q-108 0 -184 16l-8 94q200 89 311 279q-37 -41 -119 -41q-60 0 -108.5 25.5t-84.5 81t-36 135.5q0 99 68.5 166t168.5 67q115 0 186.5 -82.5t71.5 -205.5q0 -280 -258 -421q237 0 430 146t271 395zM-971 2441q0 119 -119 119
q-114 0 -114 -115q0 -118 119 -118q114 0 114 114z" />
    <glyph glyph-name="glyph107" horiz-adv-x="0" 
d="M-512 2576q0 -366 -140.5 -516.5t-461.5 -150.5v82q176 96 176 282q0 152 -143 152q-99 0 -135 -98h-57q-43 102 -176 102q-185 0 -185 -184q0 -75 16 -95q23 131 155 131q206 0 206 -188q0 -48 -22 -88.5t-68 -70t-107 -29.5q-66 0 -124.5 35.5t-108 114.5t-49.5 177
q0 336 250 336q144 0 237 -102q62 102 191 102q243 0 243 -250q0 -180 -102 -286q116 25 185 135.5t69 408.5h151zM-1368 2089q0 94 -89 94q-83 0 -83 -82q0 -94 90 -94q82 0 82 82z" />
    <glyph glyph-name="glyph108" horiz-adv-x="0" 
d="M-459 2183h-287v-287h-143v287h-283v144h283v282h143v-282h287v-144z" />
    <glyph glyph-name="glyph109" horiz-adv-x="0" 
d="M-37 2499q0 -37 -180 -88.5t-389 -51.5q-99 0 -139 -24q204 -29 204 -226q0 -74 -32.5 -130t-86.5 -87.5t-126 -31.5q-69 0 -126 28.5t-94.5 87.5t-37.5 142q0 354 495 368q288 8 443 135zM-672 2105q0 123 -131 123q-106 0 -106 -114q0 -123 131 -123q106 0 106 114z
" />
    <glyph glyph-name="uni0E48" unicode="&#xe48;" horiz-adv-x="0" 
d="M-233 1896h-156v574h156v-574z" />
    <glyph glyph-name="uni0E49" unicode="&#xe49;" horiz-adv-x="0" 
d="M49 2466q-103 -318 -331 -460t-517 -142q-108 0 -184 16l-8 94q200 89 311 279q-37 -41 -119 -41q-68 0 -118 31t-80.5 85t-30.5 126q0 99 68.5 166t168.5 67q77 0 134 -37t90.5 -102t33.5 -149q0 -280 -258 -421q239 0 431 146t270 395zM-668 2441q0 119 -119 119
q-114 0 -114 -115q0 -118 119 -118q114 0 114 114z" />
    <glyph glyph-name="uni0E4A" unicode="&#xe4a;" horiz-adv-x="0" 
d="M21 2576q0 -236 -59 -384.5t-194 -215.5t-349 -67v82q176 96 176 282q0 152 -143 152q-99 0 -135 -98h-57q-43 102 -176 102q-185 0 -185 -184q0 -75 16 -95q23 131 155 131q206 0 206 -188q0 -80 -58 -134t-139 -54q-67 0 -125.5 35.5t-108 114.5t-49.5 177
q0 336 251 336q144 0 237 -102q62 102 191 102q243 0 243 -250q0 -180 -102 -286q90 20 148.5 85t82 173t23.5 286h151zM-835 2089q0 94 -89 94q-83 0 -83 -82q0 -94 90 -94q82 0 82 82z" />
    <glyph glyph-name="uni0E4B" unicode="&#xe4b;" horiz-adv-x="0" 
d="M37 2183h-283v-287h-143v287h-283v144h283v282h143v-282h283v-144z" />
    <glyph glyph-name="uni0E4C" unicode="&#xe4c;" horiz-adv-x="0" 
d="M262 2499q0 -37 -180 -88.5t-389 -51.5q-99 0 -139 -24q204 -29 204 -226q0 -73 -32 -129t-86.5 -88t-126.5 -32q-77 0 -134.5 33t-90.5 90.5t-33 134.5q0 354 495 368q288 8 443 135zM-373 2105q0 123 -131 123q-106 0 -106 -114q0 -123 131 -123q106 0 106 114z" />
    <glyph glyph-name="glyph115" horiz-adv-x="2490" 
d="M2253 0h-1004v1196q0 152 -135.5 238t-331.5 86q-239 0 -422 -131q162 -42 328 -156q-157 -68 -222 -137t-65 -174v-463q58 53 128 53q114 0 190 -75.5t76 -190.5q0 -78 -35.5 -136.5t-97.5 -94t-142 -35.5q-78 0 -136.5 34t-92 93t-33.5 139v708q0 199 205 271
q-105 67 -340 123q87 135 281 223t382 88q191 0 331.5 -57t212 -156.5t71.5 -241.5v-1052h700v1486h152v-1638zM655 250q0 123 -124 123q-138 0 -138 -135q0 -123 125 -123q137 0 137 135z" />
    <glyph glyph-name="uni2018" unicode="&#x2018;" horiz-adv-x="596" 
d="M414 1823q-119 -78 -119 -258h107v-259h-225v259q0 243 172 356z" />
    <glyph glyph-name="uni2019" unicode="&#x2019;" horiz-adv-x="596" 
d="M238 1306l-65 99q119 78 119 258h-107v258h225v-258q0 -242 -172 -357z" />
    <glyph glyph-name="uni201C" unicode="&#x201c;" horiz-adv-x="1044" 
d="M864 1823q-120 -78 -120 -258h108v-259h-226v259q0 243 172 356zM408 1823q-120 -78 -120 -258h108v-259h-226v259q0 243 172 356z" />
    <glyph glyph-name="uni201D" unicode="&#x201d;" horiz-adv-x="1044" 
d="M692 1306l-66 99q120 78 120 258h-108v258h226v-258q0 -244 -172 -357zM236 1306l-66 99q120 78 120 258h-108v258h226v-258q0 -242 -172 -357z" />
    <glyph glyph-name="uni2022" unicode="&#x2022;" horiz-adv-x="1342" 
d="M1000 938q0 -93 -44 -166t-117.5 -117t-166.5 -44t-166 44t-117 117t-44 166q0 137 95.5 232.5t231.5 95.5q94 0 167.5 -44.5t117 -117.5t43.5 -166z" />
    <glyph glyph-name="uni2013" unicode="&#x2013;" horiz-adv-x="1342" 
d="M1358 611h-1374v120h1374v-120z" />
    <glyph glyph-name="uni2014" unicode="&#x2014;" horiz-adv-x="2684" 
d="M2699 611h-2715v120h2715v-120z" />
    <glyph glyph-name="glyph123" horiz-adv-x="0" 
d="M-13 2417q-391 -508 -848 -508q-111 0 -198.5 39.5t-131 101.5t-43.5 144q0 67 29.5 125.5t86.5 96.5t134 38q98 0 174 -70.5t76 -167.5q0 -109 -74 -172q37 0 95.5 21t150.5 68.5t198 139t236 242.5zM-869 2195q0 123 -119 123q-115 0 -115 -114q0 -123 119 -123
q115 0 115 114z" />
    <glyph glyph-name="glyph124" horiz-adv-x="0" 
d="M-454 2253q0 -78 -35.5 -146t-107 -115t-165.5 -47q-78 0 -146 35.5t-115 107t-47 165.5q0 87 41.5 156t110.5 110.5t156 41.5q88 0 157 -42t110 -110.5t41 -155.5zM-594 2253q0 43 -19.5 80t-58.5 62.5t-90 25.5q-48 0 -85.5 -22.5t-60 -60t-22.5 -85.5t22.5 -85.5
t60 -60t85.5 -22.5q43 0 80 19.5t62.5 58.5t25.5 90z" />
    <glyph glyph-name="glyph125" horiz-adv-x="0" 
d="M-418 2564q-149 -158 -362 -158q-64 0 -156 11q-169 20 -214 20q-95 0 -146.5 -51t-51.5 -147q0 -105 99 -187q32 80 106 193q156 -220 271 -238q-50 54 -50 111q0 80 53 134t132 54q59 0 102.5 -26t69 -72.5t25.5 -107.5q0 -212 -277 -212q-81 0 -171.5 56t-133.5 108
q-12 0 -78 -164q-279 110 -279 353q0 323 373 323q49 0 191 -14q75 -7 130 -7q89 0 154 28.5t119 90.5zM-647 2109q0 91 -90 91q-82 0 -82 -86q0 -91 90 -91q82 0 82 86z" />
    <glyph glyph-name="glyph126" horiz-adv-x="0" 
d="M-541 2966h-151v573h151v-573z" />
    <glyph glyph-name="glyph127" horiz-adv-x="0" 
d="M-303 3457q-100 -291 -310 -416t-472 -125q-79 0 -144 13l-8 86q186 92 279 258q-33 -45 -103 -45q-56 0 -101 23.5t-76.5 75t-31.5 122.5q0 60 28.5 106.5t76 74.5t108.5 28q60 0 109.5 -26.5t87 -86.5t37.5 -145q0 -258 -234 -381q218 0 386 131t245 360zM-950 3441
q0 102 -103 102q-106 0 -106 -102q0 -107 106 -107q103 0 103 107z" />
    <glyph glyph-name="glyph128" horiz-adv-x="0" 
d="M-304 3559q0 -216 -50.5 -347.5t-173 -193t-317.5 -61.5v74q156 84 156 254q0 139 -127 139q-92 0 -119 -90h-49q-39 94 -166 94q-43 0 -76 -17t-59.5 -56.5t-26.5 -94.5q0 -69 17 -82q18 119 142 119q50 0 92 -24.5t65.5 -62t23.5 -85.5q0 -74 -50.5 -123t-125.5 -49
q-70 0 -126 39t-94 108t-38 152q0 120 64 209.5t175 89.5q120 0 203 -94q61 94 159 94q99 0 165 -67t66 -176q0 -129 -91 -240q112 33 171 132.5t59 358.5h131zM-1074 3117q0 86 -86 86q-66 0 -66 -70q0 -86 86 -86q66 0 66 70z" />
    <glyph glyph-name="glyph129" horiz-adv-x="0" 
d="M-262 3252h-287v-286h-143v286h-283v144h283v282h143v-282h287v-144z" />
    <glyph glyph-name="glyph130" horiz-adv-x="0" 
d="M-98 3187q-147 -127 -508 -127q-85 0 -123 -21q184 -25 184 -205q0 -65 -29.5 -115.5t-78.5 -80t-113 -29.5q-68 0 -119 30t-80.5 82t-29.5 122q0 162 124 246.5t318 88.5q246 5 393 119zM-659 2822q0 119 -119 119q-99 0 -99 -98q0 -119 113 -119q105 0 105 98z" />
    <glyph glyph-name="glyph131" horiz-adv-x="410" 
 />
    <glyph glyph-name="uni0E01" unicode="&#xe01;" horiz-adv-x="1638" 
d="M1401 0h-152v1196q0 152 -135.5 238t-331.5 86q-239 0 -422 -131q162 -42 328 -156q-97 -42 -162 -94t-84.5 -100.5t-19.5 -116.5v-922h-152v987q0 170 193 238q-105 67 -340 123q87 135 281 223t382 88q191 0 331.5 -57t212 -156.5t71.5 -241.5v-1204z" />
    <glyph glyph-name="uni0E02" unicode="&#xe02;" horiz-adv-x="1540" 
d="M1302 0h-840v152h205v774q0 57 67 196q68 140 68 193q0 178 -201 205q-173 0 -262 -58q86 0 151.5 -30.5t96 -90t30.5 -139.5q0 -68 -29.5 -125.5t-92 -98t-152.5 -40.5q-83 0 -137 34t-89.5 100t-35.5 141q0 112 38.5 200t149.5 167t312 79q167 0 274 -92t107 -248
q0 -71 -72 -221t-72 -197v-749h332v1486h152v-1638zM478 1217q0 126 -131 126q-127 0 -127 -126q0 -132 127 -132q131 0 131 132z" />
    <glyph glyph-name="uni0E03" unicode="&#xe03;" horiz-adv-x="1638" 
d="M1396 0h-844v152h205v925q0 111 128 231q56 52 56 68q0 25 -34 62t-56 37q-40 0 -192 -136q-172 168 -242 168q-57 0 -120.5 -71t-76.5 -138q58 58 169 58q106 0 175.5 -75t69.5 -187q0 -113 -73.5 -183.5t-196.5 -70.5q-137 0 -206 97.5t-69 247.5q0 202 126 338
t210 136q42 0 70 -21l159 -122l156 118q33 25 57 25q30 0 138 -119t108 -156q0 -16 -174 -224q-31 -37 -31 -103v-905h336v1486h152v-1638zM503 1106q0 127 -131 127q-127 0 -127 -127q0 -131 127 -131q131 0 131 131z" />
    <glyph glyph-name="uni0E04" unicode="&#xe04;" horiz-adv-x="1708" 
d="M1470 0h-151v1065q0 131 -58.5 230.5t-161.5 162t-235 62.5q-127 0 -231.5 -56.5t-182 -181t-77.5 -299.5v-647l86 270l123 418q77 262 292 262q110 0 187.5 -79t77.5 -191q0 -117 -79 -194t-196 -77q-151 0 -196 99l-21 -66l-258 -778h-156v987q0 288 176 480t447 192
q168 0 305 -66t223 -198.5t86 -317.5v-1077zM995 1008q0 135 -139 135q-123 0 -123 -123q0 -135 139 -135q123 0 123 123z" />
    <glyph glyph-name="uni0E05" unicode="&#xe05;" horiz-adv-x="1708" 
d="M1479 0h-152v1184q0 307 -171 307q-65 0 -103 -29l-172 -131l-172 131q-43 33 -122 33q-193 0 -193 -311v-844l82 258l123 352q93 267 278 267q271 0 271 -271q0 -78 -33 -135.5t-90 -90t-135 -32.5q-111 0 -205 111l-33 -107l-254 -692h-156v1270q0 95 42 180.5
t115.5 136.5t166.5 51q143 0 208 -54q35 -24 107 -89q48 44 114 89q69 54 206 54q83 0 144 -41.5t97.5 -118t36.5 -175.5v-1303zM1008 954q0 127 -127 127q-131 0 -131 -127q0 -131 131 -131q127 0 127 131z" />
    <glyph glyph-name="uni0E06" unicode="&#xe06;" horiz-adv-x="1995" 
d="M1751 0h-151q0 27 -53 101t-131 160t-160.5 142.5t-176.5 92.5t-139 41v-373q0 -81 -64.5 -132.5t-156.5 -51.5q-91 0 -170 42t-134.5 126.5t-55.5 195.5q0 172 121 260t309 88v385q0 102 128 229q60 59 60 70q0 24 -34.5 61.5t-55.5 37.5q-45 0 -197 -136
q-172 168 -241 168q-57 0 -122.5 -73t-74.5 -136q54 58 176 58q64 0 114 -26.5t87 -86t37 -149.5q0 -112 -76.5 -183t-194.5 -71q-274 0 -274 353q0 197 127 331.5t205 134.5q51 0 78 -21l155 -122l156 118q33 25 57 25q31 0 138.5 -121t107.5 -154q0 -27 -76 -116
l-102 -115q-27 -33 -27 -96v-373q178 -34 361.5 -149.5t318.5 -313.5l-20 148v1269h151v-1638zM535 1106q0 127 -131 127q-127 0 -127 -127q0 -131 127 -131q131 0 131 131zM789 225v316q-279 0 -279 -205q0 -82 60.5 -147.5t144.5 -65.5q74 0 74 102z" />
    <glyph glyph-name="uni0E07" unicode="&#xe07;" horiz-adv-x="1282" 
d="M1044 0h-151l-868 881l110 110l672 -688q12 -13 45 -57l35 -50l22 -32l-16 110v758q0 49 7 73t38 79q-66 -70 -172 -70q-64 0 -119 30t-95 91t-40 141q0 83 37 147t97.5 100t139.5 36q100 0 179 -77.5t79 -172.5v-1409zM901 1380q0 127 -127 127q-123 0 -123 -123
q0 -127 127 -127q123 0 123 123z" />
    <glyph glyph-name="uni0E08" unicode="&#xe08;" horiz-adv-x="1565" 
d="M1327 0h-143l-238 688q-33 91 -45 115q-53 -90 -192 -90q-77 0 -134 33.5t-90.5 92.5t-33.5 136q0 63 29 118.5t86.5 93.5t133.5 38q211 0 279 -209l176 -537l41 -147v741q0 108 -52.5 199.5t-169.5 165t-274 73.5q-214 0 -330 -142.5t-116 -393.5v-127h-152v147
q0 199 75.5 348t203.5 230.5t303 81.5q278 0 460.5 -157.5t182.5 -416.5v-1081zM840 971q0 123 -123 123t-123 -123q0 -127 123 -127t123 127z" />
    <glyph glyph-name="uni0E09" unicode="&#xe09;" horiz-adv-x="1659" 
d="M1073 258q-100 -79 -344 -258h-151v717q-185 40 -185 254q0 74 36.5 133.5t96 96t133.5 36.5q112 0 189.5 -75t77.5 -187q0 -198 -197 -258v-549q295 225 384 284.5t140 59.5v532q0 201 -143.5 332t-351.5 131q-126 0 -230.5 -57.5t-181 -183.5t-76.5 -303v-123h-155v123
q0 202 87.5 359t230 247t329.5 90q137 0 251.5 -43t207 -130t138.5 -196.5t46 -240.5v-549q176 -44 176 -250q0 -109 -73 -185.5t-181 -76.5q-71 0 -130 25.5t-95.5 73t-36.5 106.5q0 47 8 65zM786 975q0 127 -127 127t-127 -127t127 -127t127 127zM1446 254q0 135 -135 135
q-127 0 -127 -127q0 -135 135 -135q127 0 127 127z" />
    <glyph glyph-name="uni0E0A" unicode="&#xe0a;" horiz-adv-x="1565" 
d="M1390 1667l-262 -262l192 -139v-1266h-807v152h189v897q0 77 10 113t57 91t129 123q-187 131 -360 131q-196 0 -266 -90q38 17 69 17q62 0 116 -27t90 -89.5t36 -147.5q0 -109 -85 -185t-194 -76q-122 0 -190.5 76t-68.5 226q0 184 144 310t353 126q227 0 455 -160
l286 282zM444 1188q0 127 -132 127q-126 0 -126 -127q0 -131 126 -131q132 0 132 131zM1169 152v1044l-148 107q-68 -63 -107.5 -107.5t-48 -67t-8.5 -88.5v-888h312z" />
    <glyph glyph-name="uni0E0B" unicode="&#xe0b;" horiz-adv-x="1565" 
d="M1397 1667l-262 -262l192 -172v-1233h-819v152h201v925q0 103 106 209l111 111q-98 94 -119 94q-25 0 -197 -152q-172 168 -241 168q-58 0 -106.5 -63t-58.5 -132q78 44 132 44q111 0 180.5 -75t69.5 -187q0 -103 -73 -178.5t-174 -75.5q-269 0 -269 368q0 155 91.5 303
t219.5 148q45 0 70 -21l155 -131l156 127q31 25 57 25q25 0 201 -160l270 270zM1176 152v1019l-152 132q-20 -18 -71 -68t-70 -91t-19 -87v-905h312zM459 1106q0 127 -131 127q-127 0 -127 -127q0 -131 127 -131q131 0 131 131z" />
    <glyph glyph-name="uni0E0C" unicode="&#xe0c;" horiz-adv-x="2445" 
d="M2208 0h-152q-8 59 -138 207.5t-281 233t-232 87.5v-364q0 -184 -180 -184q-82 0 -147 45t-110.5 129.5t-45.5 183.5q0 150 90 244.5t241 101.5v512q0 152 -135.5 238t-331.5 86q-240 0 -421 -131q172 -44 327 -156q-278 -121 -278 -311v-455q45 45 117 45
q82 0 143.5 -34.5t95 -93t33.5 -138.5q0 -77 -36 -135.5t-99.5 -94.5t-143.5 -36q-116 0 -189 74.5t-73 191.5v708q0 166 205 271q-105 68 -340 123q86 135 281.5 223t382.5 88q200 0 340.5 -61t207 -160t66.5 -234v-532q159 -20 347.5 -143.5t303.5 -311.5v1421h152v-1638z
M1262 225v316q-197 -4 -197 -201q0 -79 44.5 -148t111.5 -69q41 0 41 102zM659 250q0 123 -122 123q-127 0 -127 -135q0 -123 122 -123q127 0 127 135z" />
    <glyph glyph-name="uni0E0D" unicode="&#xe0d;" horiz-adv-x="2490" 
d="M2253 0h-1004v1196q0 152 -135.5 238t-331.5 86q-239 0 -422 -131q162 -42 328 -156q-157 -68 -222 -137t-65 -174v-463q58 53 128 53q114 0 190 -75.5t76 -190.5q0 -78 -35.5 -136.5t-97.5 -94t-142 -35.5q-78 0 -136.5 34t-92 93t-33.5 139v708q0 199 205 271
q-105 67 -340 123q87 135 281 223t382 88q191 0 331.5 -57t212 -156.5t71.5 -241.5v-1052h700v1486h152v-1638zM655 250q0 123 -124 123q-138 0 -138 -135q0 -123 125 -123q137 0 137 135zM2216 -168q-58 -242 -235.5 -383t-419.5 -141q-110 0 -194.5 41.5t-129.5 110.5
t-45 163q0 110 80 182t191 72t186 -80t75 -187q0 -114 -98 -179q130 9 270.5 147t163.5 291zM1593 -393q0 135 -135 135q-131 0 -131 -131q0 -135 135 -135q131 0 131 131z" />
    <glyph glyph-name="uni0E0E" unicode="&#xe0e;" horiz-adv-x="1802" 
d="M1565 -590l-398 -401l-356 237q-54 36 -78 111v-62q0 -110 -80 -196t-196 -86q-86 0 -151.5 38t-103.5 102.5t-38 150.5q0 113 80.5 195.5t193.5 82.5q132 0 193 -65q-17 21 -25 41.5t-8 40.5v213h139v-340l410 -267l266 267v1724q0 153 -134.5 238.5t-332.5 85.5
q-241 0 -422 -131q167 -43 328 -156q-96 -45 -159.5 -95.5t-81 -98.5t-17.5 -117v-672q0 -108 -75 -189t-183 -81q-80 0 -142 36t-97.5 95t-35.5 135q0 112 69 184t181 72q69 0 131 -32v513q0 166 189 242q-105 67 -344 123q87 136 281.5 223.5t385.5 87.5
q190 0 329.5 -56.5t210.5 -156.5t71 -242v-1794zM459 238q0 143 -139 143q-119 0 -119 -127q0 -143 133 -143q125 0 125 127zM598 -700q0 147 -152 147q-51 0 -91 -42t-40 -97q0 -148 141 -148q34 0 65.5 17t54 50t22.5 73z" />
    <glyph glyph-name="uni0E0F" unicode="&#xe0f;" horiz-adv-x="1802" 
d="M1565 -688l-295 -303l-185 184l-180 -184q-54 55 -155 168q-18 29 -29 65q-16 -99 -86 -164t-156 -65q-94 0 -165 38.5t-110.5 102t-39.5 150.5q0 113 80.5 195.5t193.5 82.5q116 0 193 -69q-19 25 -26 52t-7 34v213h139v-402l168 -205l180 177l177 -177l151 160v1831
q0 153 -134.5 238.5t-332.5 85.5q-241 0 -422 -131q167 -43 328 -156q-96 -45 -159.5 -95.5t-81 -98.5t-17.5 -117v-672q0 -108 -75 -189t-183 -81q-80 0 -142 36t-97.5 95t-35.5 135q0 112 69 184t181 72q69 0 131 -32v513q0 170 189 242q-105 67 -344 123
q87 136 281.5 223.5t385.5 87.5q190 0 329.5 -56.5t210.5 -156.5t71 -242v-1892zM459 238q0 143 -139 143q-119 0 -119 -127q0 -143 133 -143q125 0 125 127zM598 -700q0 147 -152 147q-37 0 -66.5 -19t-47 -50t-17.5 -70q0 -148 152 -148q131 0 131 140z" />
    <glyph glyph-name="uni0E10" unicode="&#xe10;" horiz-adv-x="1565" 
d="M1413 1716q-28 -233 -52.5 -274t-90.5 -41q-39 0 -244 49q-200 49 -273 49q-319 0 -413 -233q114 61 328 61q252 0 449.5 -66t197.5 -188l-168 -1073h-143l-181 516q-6 32 -12 70q0 13 4 82q-70 -140 -230 -140q-62 0 -116 30.5t-95.5 96t-41.5 152.5q0 110 76 188
t188 78q193 0 256 -192l168 -516l33 -177h12l12 271l86 590q0 66 -189.5 102.5t-379.5 36.5q-208 0 -401 -37l4 41q18 184 166.5 317t402.5 133q156 0 359 -54q87 -23 116 -23q12 3 29 172zM725 799q0 127 -127 127q-51 0 -89 -37t-38 -90q0 -127 127 -127t127 127z
M1311 -758l-283 -286l-180 180l-176 -180l-131 147q-34 38 -49 102q-24 -245 -275 -245q-118 0 -190 79.5t-72 210.5q0 69 30.5 127.5t93 99t146.5 40.5q106 0 172 -58q-14 27 -23 49.5t-9 37.5v290h143v-479l164 -209l176 176l176 -176l147 152v61q9 43 29 70
q-62 -66 -172 -66q-250 0 -250 258q0 113 78.5 187.5t192.5 74.5q117 0 189.5 -74t72.5 -200v-369zM1176 -377q0 123 -132 123q-131 0 -131 -135q0 -123 137 -123q126 0 126 135zM360 -766q0 139 -139 139q-127 0 -127 -127q0 -139 130 -139q136 0 136 127z" />
    <glyph glyph-name="uni0E11" unicode="&#xe11;" horiz-adv-x="2064" 
d="M1822 0h-152v1233q0 254 -205 254h-24l-549 -1487h-139v1077q0 111 128 231q56 52 56 68q0 21 -32 60t-58 39q-40 0 -192 -136q-172 168 -242 168q-57 0 -120.5 -71t-76.5 -138q58 58 169 58q106 0 175.5 -75t69.5 -187q0 -78 -34.5 -135t-94 -88t-141.5 -31
q-137 0 -206 97.5t-69 247.5q0 207 128 340.5t208 133.5q42 0 70 -21l159 -122l156 118q33 25 57 25q18 0 69.5 -47.5t114 -123t62.5 -104.5q0 -16 -174 -224q-31 -37 -31 -103v-631l115 328l319 884h103q381 0 381 -413v-1225zM499 1106q0 127 -131 127q-127 0 -127 -127
q0 -131 127 -131q131 0 131 131z" />
    <glyph glyph-name="uni0E12" unicode="&#xe12;" horiz-adv-x="2515" 
d="M2277 0h-151q-15 64 -140.5 207t-279 230t-227.5 95v-368q0 -184 -185 -184q-138 0 -220.5 99.5t-82.5 264.5q0 99 40 172.5t115.5 118t180.5 49.5v500q0 307 -171 307q-65 0 -103 -29l-172 -131l-172 131q-43 33 -122 33q-193 0 -193 -311v-987l343 409q20 24 57.5 55.5
t52.5 39.5q-67 0 -125.5 29.5t-99 87t-40.5 128.5q0 73 30 132.5t90.5 96.5t145.5 37q80 0 140.5 -34t95 -90.5t34.5 -132.5q0 -104 -90 -210l-630 -745h-156v1270q0 95 42 180.5t115.5 136.5t166.5 51q143 0 208 -54q35 -24 107 -89q48 44 114 89q69 54 206 54
q83 0 144 -41.5t97.5 -118t36.5 -175.5v-631q122 0 328.5 -128.5t318.5 -305.5v1400h151v-1638zM983 954q0 140 -139 140q-127 0 -127 -127q0 -148 139 -148q127 0 127 135zM1327 225v316q-188 -4 -188 -197q0 -221 151 -221q37 0 37 102z" />
    <glyph glyph-name="uni0E13" unicode="&#xe13;" horiz-adv-x="2490" 
d="M1851 381q-27 -23 -71 -62l-183 -136q-133 -99 -208 -183h-140v1196q0 152 -135.5 238t-331.5 86q-239 0 -422 -131q162 -42 328 -156q-97 -42 -161 -93t-86.5 -101t-22.5 -117v-455q45 41 113 41q78 0 137 -34.5t93 -92.5t34 -135q0 -78 -35.5 -136.5t-97.5 -94
t-142 -35.5q-113 0 -181.5 73t-68.5 193v741q0 170 193 238q-105 67 -340 123q87 135 281 223t382 88q191 0 331.5 -57t212 -156.5t71.5 -241.5v-1007q157 161 354.5 277t329.5 116v1048h151v-1069q189 -76 189 -282q0 -96 -39 -164.5t-106.5 -105.5t-161.5 -37
q-299 0 -299 303q0 14 32 98zM2294 283q0 176 -176 176q-172 0 -172 -168q0 -176 176 -176q172 0 172 168zM655 250q0 127 -127 127t-127 -135q0 -127 124 -127q130 0 130 135z" />
    <glyph glyph-name="uni0E14" unicode="&#xe14;" horiz-adv-x="1708" 
d="M1470 0h-151v1065q0 131 -63 232t-166.5 160t-237.5 59q-135 0 -236.5 -70t-164 -190t-62.5 -269v-758l356 447q21 26 84 76l23 18q-254 0 -254 246q0 74 37 135t96.5 98t132.5 37q78 0 139 -35.5t96.5 -93t35.5 -130.5q0 -105 -91 -216l-667 -811h-144v987
q0 284 176.5 478t446.5 194q180 0 317.5 -76.5t217 -206t79.5 -299.5v-1077zM995 1008q0 135 -139 135q-123 0 -123 -123q0 -135 139 -135q123 0 123 123z" />
    <glyph glyph-name="uni0E15" unicode="&#xe15;" horiz-adv-x="1708" 
d="M1470 0h-152v1184q0 307 -171 307q-65 0 -103 -29l-172 -131l-172 131q-43 33 -122 33q-193 0 -193 -311v-987l343 409q11 13 56 56q19 16 54 39q-108 0 -186.5 73.5t-78.5 171.5q0 117 73 191.5t193 74.5q116 0 193 -72t77 -185q0 -104 -90 -210l-630 -745h-156v1270
q0 146 93.5 257t230.5 111q143 0 208 -54q35 -24 107 -89q48 44 114 89q69 54 206 54q72 0 129.5 -32.5t103 -109.5t45.5 -193v-1303zM974 954q0 140 -139 140q-127 0 -127 -127q0 -148 139 -148q127 0 127 135z" />
    <glyph glyph-name="uni0E16" unicode="&#xe16;" horiz-adv-x="1638" 
d="M1401 0h-152v1196q0 152 -135.5 238t-331.5 86q-239 0 -422 -131q162 -42 328 -156q-97 -42 -161 -93.5t-88.5 -103t-24.5 -118.5v-463q31 45 127 45q73 0 130 -34.5t90.5 -91t33.5 -128.5q0 -78 -35.5 -136.5t-97.5 -94t-142 -35.5q-115 0 -182.5 73t-67.5 189v745
q0 170 193 238q-105 67 -340 123q87 135 281 223t382 88q191 0 331.5 -57t212 -156.5t71.5 -241.5v-1204zM659 242q0 123 -133 123q-129 0 -129 -132q0 -122 125 -122q137 0 137 131z" />
    <glyph glyph-name="uni0E17" unicode="&#xe17;" horiz-adv-x="1757" 
d="M1520 0h-152v1233q0 254 -205 254h-24l-541 -1487h-139v1118q0 5 2 22q2 14 2 27q-48 -45 -118 -45q-71 0 -128 28.5t-98 90.5t-41 148q0 69 31 128t95 100.5t148 41.5q117 0 189.5 -76.5t72.5 -193.5v-988l41 163l62 194l315 880h107q381 0 381 -413v-1225zM483 1397
q0 123 -127 123q-135 0 -135 -136q0 -122 125 -122q137 0 137 135z" />
    <glyph glyph-name="uni0E18" unicode="&#xe18;" horiz-adv-x="1470" 
d="M1343 1384l-118 -81q-141 213 -431 213q-168 0 -309 -101.5t-203 -254.5q19 9 45 16.5t54 7.5h496q307 0 307 -283v-901h-951v152h193v892h-303l4 37q26 241 231.5 409.5t456.5 168.5q353 0 528 -275zM1032 152v733q0 86 -40 122.5t-99 36.5h-315v-892h454z" />
    <glyph glyph-name="uni0E19" unicode="&#xe19;" horiz-adv-x="1757" 
d="M1146 411q-39 0 -172 -84t-223.5 -168.5t-144.5 -158.5h-151v1151q-37 -29 -106 -29q-73 0 -130 28t-99 89.5t-42 149.5q0 69 31 128t95 100.5t148 41.5q78 0 135 -33t90 -94t33 -143v-1172q156 151 303.5 235.5t275 115t179.5 30.5v1040h152v-1069q188 -76 188 -282
q0 -307 -307 -307q-89 0 -156 39.5t-105 106.5t-38 157q0 72 44 128zM483 1397q0 123 -122 123q-140 0 -140 -136q0 -122 123 -122q139 0 139 135zM1577 283q0 176 -176 176q-172 0 -172 -168q0 -176 176 -176q172 0 172 168z" />
    <glyph glyph-name="uni0E1A" unicode="&#xe1a;" horiz-adv-x="1827" 
d="M1589 0h-1310v152h188v1007q-40 -33 -127 -33q-112 0 -185 75t-73 188q0 69 31.5 127.5t96 100.5t150.5 42q78 0 134.5 -33.5t90 -94t33.5 -142.5v-1237h820v1486h151v-1638zM487 1397q0 123 -122 123q-140 0 -140 -136q0 -122 123 -122q139 0 139 135z" />
    <glyph glyph-name="uni0E1B" unicode="&#xe1b;" horiz-adv-x="1827" 
d="M1589 0h-1310v152h188v1007q-40 -33 -127 -33q-112 0 -185 75t-73 188q0 69 31.5 127.5t96 100.5t150.5 42q78 0 134.5 -33.5t90 -94t33.5 -142.5v-1237h820v2363h151v-2515zM487 1397q0 123 -122 123q-140 0 -140 -136q0 -122 123 -122q139 0 139 135z" />
    <glyph glyph-name="uni0E1C" unicode="&#xe1c;" horiz-adv-x="1659" 
d="M1421 0h-139l-446 545l-447 -545h-143v1389q0 79 35 140t92.5 95.5t134.5 34.5q114 0 194 -78t80 -192q0 -79 -34 -139t-91 -94t-133 -34t-127 45v-925l373 458h131l369 -446v1384h151v-1638zM639 1384q0 136 -139 136q-123 0 -123 -123q0 -135 130 -135q132 0 132 122z
" />
    <glyph glyph-name="uni0E1D" unicode="&#xe1d;" horiz-adv-x="1659" 
d="M1421 0h-139l-446 545l-447 -545h-143v1389q0 79 35 140t92.5 95.5t134.5 34.5q114 0 194 -78t80 -192q0 -79 -34 -139t-91 -94t-133 -34t-127 45v-925l373 458h131l369 -446v2261h151v-2515zM639 1384q0 136 -139 136q-123 0 -123 -123q0 -135 130 -135q132 0 132 122z
" />
    <glyph glyph-name="uni0E1E" unicode="&#xe1e;" horiz-adv-x="1896" 
d="M1659 0h-152l-401 1257l-49 213l-45 -213l-406 -1257h-151v1159q-45 -37 -123 -37q-108 0 -181 79t-73 188q0 69 31 128t95 100.5t148 41.5q118 0 186 -75.5t68 -194.5v-950l82 270l299 929h143l327 -1005l50 -207v1212h152v-1638zM483 1397q0 123 -121 123
q-141 0 -141 -136q0 -122 122 -122q140 0 140 135z" />
    <glyph glyph-name="uni0E1F" unicode="&#xe1f;" horiz-adv-x="1896" 
d="M1659 0h-152l-401 1257l-49 213l-45 -213l-406 -1257h-151v1159q-45 -37 -123 -37q-108 0 -181 79t-73 188q0 69 31 128t95 100.5t148 41.5q118 0 186 -75.5t68 -194.5v-950l82 270l299 929h143l327 -1005l50 -207v2089h152v-2515zM483 1397q0 123 -121 123
q-141 0 -141 -136q0 -122 122 -122q140 0 140 135z" />
    <glyph glyph-name="uni0E20" unicode="&#xe20;" horiz-adv-x="1802" 
d="M1565 0h-152v1196q0 153 -134.5 238.5t-332.5 85.5q-241 0 -422 -131q167 -43 328 -156q-96 -45 -159.5 -95.5t-81 -98.5t-17.5 -117v-672q0 -108 -75 -189t-183 -81q-80 0 -142 36t-97.5 95t-35.5 135q0 112 69 184t181 72q69 0 131 -32v513q0 166 189 242
q-105 67 -344 123q87 136 281.5 223.5t385.5 87.5q190 0 329.5 -56.5t210.5 -156.5t71 -242v-1204zM459 238q0 143 -139 143q-119 0 -119 -127q0 -143 133 -143q125 0 125 127z" />
    <glyph glyph-name="uni0E21" unicode="&#xe21;" horiz-adv-x="1778" 
d="M1540 0h-151q0 20 -66 87.5t-165 146t-243 154.5t-251 83v-307q0 -184 -181 -184q-91 0 -164 45t-118 118t-45 164q0 152 98 238t262 86v524q-21 -33 -116 -33q-122 0 -195.5 77.5t-73.5 189.5q0 115 80 192.5t195 77.5q116 0 189 -75.5t73 -194.5v-771
q136 0 368.5 -127.5t352.5 -285.5v1433h151v-1638zM537 1397q0 123 -126 123q-137 0 -137 -136q0 -122 126 -122q137 0 137 135zM520 225v254q-213 0 -213 -172q0 -67 52.5 -125.5t119.5 -58.5q41 0 41 102z" />
    <glyph glyph-name="uni0E22" unicode="&#xe22;" horiz-adv-x="1638" 
d="M1397 0h-1094v557q0 211 115 258q-279 92 -279 393q0 79 23.5 150t77 143t132.5 115t177 43q133 0 212 -75.5t79 -194.5q0 -78 -34.5 -138t-91.5 -94.5t-132 -34.5q-246 0 -246 230q0 11 4 49q-53 -53 -53 -183q0 -132 87 -224.5t212 -92.5h237v-143h-213
q-155 0 -155 -180v-426h790v1486h152v-1638zM696 1384q0 136 -136 136q-126 0 -126 -123q0 -135 137 -135q125 0 125 122z" />
    <glyph glyph-name="uni0E23" unicode="&#xe23;" horiz-adv-x="1233" 
d="M1167 1114h-143v33q0 108 -48.5 192t-128 132.5t-183.5 48.5q-332 0 -373 -320q77 25 114 25h447v-1000q0 -100 -76.5 -172.5t-177.5 -72.5q-279 0 -279 278q0 75 34.5 134t92 93.5t132.5 34.5q68 0 122 -37v598h-548v82q0 210 149 353t363 143q147 0 259.5 -64.5
t178 -171.5t65.5 -247v-62zM709 254q0 123 -123 123q-127 0 -127 -127q0 -123 123 -123q127 0 127 127z" />
    <glyph glyph-name="uni0E24" unicode="&#xe24;" horiz-adv-x="1638" 
d="M1401 -995h-152v2191q0 152 -135.5 238t-331.5 86q-239 0 -422 -131q162 -42 328 -156q-97 -42 -161 -93t-86.5 -101t-22.5 -117v-439q35 33 102 33q73 0 134 -30.5t101 -92t40 -147.5q0 -78 -35.5 -136.5t-97.5 -94t-142 -35.5q-68 0 -122.5 27t-91 86t-36.5 149v745
q0 170 193 238q-105 67 -340 123q87 135 281 223t382 88q191 0 331.5 -57t212 -156.5t71.5 -241.5v-2199zM655 250q0 123 -124 123q-138 0 -138 -135q0 -123 129 -123q133 0 133 135z" />
    <glyph glyph-name="uni0E25" unicode="&#xe25;" horiz-adv-x="1659" 
d="M1421 0h-151q0 190 -182 580t-297 505q-74 -69 -199.5 -261t-180.5 -367q66 55 130 55q116 0 195 -75.5t79 -190.5q0 -114 -79.5 -190t-194.5 -76q-123 0 -201 88.5t-78 214.5q0 125 29 241.5t88 232t179 272.5t237 261q135 -102 288 -388.5t232 -590.5l8 4l-53 443v307
q0 190 -134.5 320.5t-328.5 130.5q-144 0 -254.5 -69t-178 -188t-67.5 -272v-110h-151v110q0 200 84.5 350t230 236t340.5 86q126 0 233.5 -41.5t197.5 -126.5t134.5 -188.5t44.5 -225.5v-1077zM672 250q0 123 -131 123t-131 -135q0 -123 127 -123q135 0 135 135z" />
    <glyph glyph-name="uni0E26" unicode="&#xe26;" horiz-adv-x="1802" 
d="M1565 -995h-152v2191q0 153 -134.5 238.5t-332.5 85.5q-241 0 -422 -131q167 -43 328 -156q-96 -45 -159.5 -95.5t-81 -98.5t-17.5 -117v-672q0 -108 -75 -189t-183 -81q-80 0 -142 36t-97.5 95t-35.5 135q0 112 69 184t181 72q69 0 131 -32v513q0 166 189 242
q-105 67 -344 123q87 136 281.5 223.5t385.5 87.5q190 0 329.5 -56.5t210.5 -156.5t71 -242v-2199zM459 238q0 143 -139 143q-119 0 -119 -127q0 -143 133 -143q125 0 125 127z" />
    <glyph glyph-name="uni0E27" unicode="&#xe27;" horiz-adv-x="1421" 
d="M1032 483v664q0 105 -47.5 184.5t-130.5 127.5t-190 48q-171 0 -286.5 -117.5t-115.5 -287.5v-238h-151v250q0 229 161 387t392 158q213 0 366.5 -143t153.5 -353v-938q0 -68 -34.5 -122t-92 -88.5t-127.5 -34.5q-275 0 -275 278q0 75 35 134.5t91 93.5t128 34
q77 0 123 -37zM1040 258q0 119 -118 119q-127 0 -127 -131q0 -119 118 -119q127 0 127 131z" />
    <glyph glyph-name="uni0E28" unicode="&#xe28;" horiz-adv-x="1708" 
d="M1298 1475q85 -58 128.5 -170t43.5 -228v-1077h-151v1065q0 211 -107 295q-17 -13 -69 -82q-9 -12 -78 -82q74 -70 74 -174q0 -117 -79.5 -190.5t-197.5 -73.5q-130 0 -190 86l-25 -66l-258 -778h-156v987q0 127 34 235t111 210.5t198.5 164.5t279.5 62q203 0 336 -90
q60 82 147 291l137 -64q1 -9 -53 -110q-82 -155 -125 -211zM1106 1450q-70 66 -254 66q-137 0 -241.5 -71t-169 -194.5t-64.5 -275.5v-627l74 258l131 418q82 262 290 262q38 0 82 -16q68 69 152 180zM995 1012q0 135 -135 135q-123 0 -123 -127q0 -135 135 -135
q123 0 123 127z" />
    <glyph glyph-name="uni0E29" unicode="&#xe29;" horiz-adv-x="1946" 
d="M1962 1171q-207 -247 -373 -327v-844h-1310v152h188v1003q-39 -33 -118 -33q-118 0 -192.5 77.5t-74.5 189.5q0 69 31.5 127.5t96 100.5t150.5 42q78 0 134.5 -33.5t90 -94t33.5 -142.5v-1237h820v630q-114 -53 -295 -53q-151 0 -256 83t-105 220q0 105 71 179.5
t175 74.5q77 0 133.5 -32t88.5 -88.5t32 -133.5q0 -109 -119 -188q60 0 85 3t87.5 24.5t102.5 66.5v700h151v-634q52 26 149.5 124t116.5 138zM487 1397q0 123 -118 123q-144 0 -144 -136q0 -122 119 -122q143 0 143 135zM1155 1028q0 123 -118 123q-119 0 -119 -115
q0 -123 122 -123q115 0 115 115z" />
    <glyph glyph-name="uni0E2A" unicode="&#xe2a;" horiz-adv-x="1659" 
d="M1421 0h-151q0 189 -179.5 575.5t-292.5 498.5q-178 -192 -280.5 -367.5t-124.5 -280.5q61 78 155 78q79 0 139 -34.5t94 -91t34 -132.5q0 -114 -79.5 -190t-194.5 -76q-84 0 -147.5 41t-97.5 110.5t-34 159.5q0 185 87 392t370 524l248 280q0 29 -160 29
q-144 0 -254.5 -69t-178 -188t-67.5 -272v-110h-151v110q0 200 84.5 350t230 236t340.5 86q144 0 242 -45q33 0 127 250l139 -62q-75 -169 -139 -266q133 -87 187 -207.5t54 -251.5v-1077zM1286 434v623q0 152 -68.5 249.5t-123.5 114.5l-205 -245q76 -59 197 -284t135 -294
zM680 250q0 127 -123 127q-143 0 -143 -139q0 -132 129 -132q137 0 137 144z" />
    <glyph glyph-name="uni0E2B" unicode="&#xe2b;" horiz-adv-x="1757" 
d="M1450 1151l70 -41v-1110h-152v1044l-770 -1044h-135v1155q-37 -33 -118 -33q-118 0 -192.5 77.5t-74.5 189.5q0 69 31 128t95 100.5t148 41.5q254 0 254 -279v-1122l41 57l615 820q-205 100 -205 266q0 109 76.5 183.5t185.5 74.5q115 0 190.5 -71.5t75.5 -186.5
q0 -123 -135 -250zM1442 1401q0 119 -123 119q-32 0 -58.5 -17t-43.5 -44t-17 -58q0 -89 139 -168q103 91 103 168zM483 1397q0 123 -122 123q-140 0 -140 -136q0 -122 123 -122q139 0 139 135z" />
    <glyph glyph-name="uni0E2C" unicode="&#xe2c;" horiz-adv-x="1896" 
d="M1884 2015l-225 -221v-1794h-152l-450 1425l-45 -168l-406 -1257h-139v1159q-48 -37 -127 -37q-73 0 -131 33.5t-94.5 94t-36.5 139.5q0 69 30.5 127t94 98.5t149.5 40.5q254 0 254 -266v-971l82 291l299 929h143l386 -1192v1172q0 7 6.5 33.5t33.5 56.5
q-57 -57 -157 -57q-78 0 -138 35.5t-95.5 95.5t-35.5 139q0 116 75.5 193t191.5 77q62 0 117.5 -25t94 -73t46.5 -115q1 -7 4 -41q3 10 12 45q2 7 12 46l95 94zM1528 1921q0 123 -120 123q-134 0 -134 -131q0 -123 122 -123q132 0 132 131zM471 1397q0 123 -121 123
q-137 0 -137 -140q0 -123 120 -123q138 0 138 140z" />
    <glyph glyph-name="uni0E2D" unicode="&#xe2d;" horiz-adv-x="1614" 
d="M1376 0h-970v963q0 116 73.5 193t188.5 77q79 0 140.5 -37t97.5 -96.5t36 -136.5q0 -113 -74 -190t-184 -77q-72 0 -127 37v-581h668v913q0 191 -137 321t-330 130q-127 0 -235.5 -58t-186.5 -181t-78 -290v-110h-152v110q0 201 85.5 351t231 235.5t339.5 85.5
q255 0 434.5 -168.5t179.5 -413.5v-1077zM799 958q0 132 -135 132q-119 0 -119 -123q0 -131 134 -131q120 0 120 122z" />
    <glyph glyph-name="uni0E2E" unicode="&#xe2e;" horiz-adv-x="1565" 
d="M1225 1438q53 -58 77.5 -140.5t24.5 -220.5v-1077h-1081v725q0 118 72 194t190 76q116 0 195 -77t79 -193q0 -115 -68 -190.5t-176 -75.5q-73 0 -141 37v-344h779v1019q0 106 -58 172q-74 -74 -188 -137t-282 -63q-170 0 -304.5 59t-134.5 174q0 125 148.5 204t324.5 79
q277 0 436 -131q18 16 58 57l147 168l108 -99q0 -4 -34 -41t-107 -110zM1016 1430q-117 90 -325 90q-111 0 -221 -41.5t-110 -102.5q0 -29 39.5 -50t111.5 -32.5t133 -11.5q129 0 218 44.5t154 103.5zM635 721q0 131 -134 131q-120 0 -120 -123q0 -131 134 -131
q120 0 120 123z" />
    <glyph glyph-name="uni0E2F" unicode="&#xe2f;" horiz-adv-x="1470" 
d="M1233 0h-152v1110l54 303l-13 4q-36 -161 -186 -298t-347 -137q-132 0 -234.5 48.5t-175.5 147t-73 198.5q0 116 74 199.5t189 83.5q79 0 137.5 -33.5t91.5 -90.5t33 -134q0 -70 -31 -124.5t-86.5 -90t-122.5 -35.5q77 -37 146 -37q428 0 544 524h152v-1638zM500 1393
q0 127 -127 127t-127 -127t127 -127t127 127z" />
    <glyph glyph-name="uni0E30" unicode="&#xe30;" horiz-adv-x="1470" 
d="M1368 1552q-116 -233 -318.5 -370.5t-430.5 -137.5q-132 0 -240 48.5t-161.5 119t-53.5 164.5q0 75 35.5 132.5t97.5 93.5t141 36q113 0 183.5 -73.5t70.5 -185.5q0 -175 -155 -216q162 0 300.5 65t237 167t162.5 243zM565 1364q0 135 -138 135q-124 0 -124 -123
q0 -135 137 -135q125 0 125 123zM1368 508q-116 -233 -318.5 -370.5t-430.5 -137.5q-131 0 -238.5 48t-162 118.5t-54.5 165.5q0 67 30.5 123.5t94.5 97.5t149 41q76 0 132 -33t89 -91t33 -135q0 -175 -155 -216q221 0 409 124.5t291 350.5zM565 320q0 135 -138 135
q-124 0 -124 -123q0 -135 137 -135q125 0 125 123z" />
    <glyph glyph-name="uni0E31" unicode="&#xe31;" horiz-adv-x="0" 
d="M286 2417q-174 -222 -404.5 -365t-435.5 -143q-177 0 -277 78.5t-100 206.5q0 67 29.5 125t88 96.5t136.5 38.5q69 0 125 -34t88.5 -86.5t32.5 -117.5q0 -129 -70 -172q69 0 279.5 109.5t392.5 361.5zM-562 2195q0 123 -123 123q-115 0 -115 -114q0 -123 123 -123
q115 0 115 114z" />
    <glyph glyph-name="uni0E32" unicode="&#xe32;" horiz-adv-x="1421" 
d="M1184 0h-152v1118q0 123 -49 212t-131.5 137.5t-196.5 48.5q-153 0 -269 -109.5t-116 -259.5v-17h-147v29q0 206 159.5 353t372.5 147q228 0 378.5 -143.5t150.5 -368.5v-1147z" />
    <glyph glyph-name="uni0E33" unicode="&#xe33;" horiz-adv-x="1421" 
d="M22 2348q0 -78 -35.5 -146t-107 -115t-165.5 -47q-87 0 -156 41.5t-110.5 110.5t-41.5 156t41.5 156t110.5 110.5t156 41.5q88 0 157 -42t110 -110.5t41 -155.5zM-118 2348q0 48 -22.5 85.5t-60 60t-85.5 22.5q-43 0 -80 -19.5t-62.5 -58.5t-25.5 -90q0 -43 19.5 -80
t58.5 -62.5t90 -25.5q43 0 80 19.5t62.5 58.5t25.5 90zM1184 0h-152v1118q0 123 -49 212t-131.5 137.5t-196.5 48.5q-153 0 -269 -109.5t-116 -259.5v-17h-147v29q0 206 159.5 353t372.5 147q228 0 378.5 -143.5t150.5 -368.5v-1147z" />
    <glyph glyph-name="uni0E34" unicode="&#xe34;" horiz-adv-x="0" 
d="M-238 1905q-245 90 -462 129t-455 39q-225 0 -393 -21q0 62 39 147.5t95 147t131 102.5t168 61.5t205 20.5q156 0 276.5 -52t208.5 -129t137.5 -176t49.5 -269zM-352 2032q-59 168 -222.5 262t-379.5 94q-300 0 -455 -234q35 17 139 38t255 21q261 0 422 -60t241 -121z
" />
    <glyph glyph-name="uni0E35" unicode="&#xe35;" horiz-adv-x="0" 
d="M-238 1905q-245 90 -462 129t-455 39q-225 0 -393 -21q0 83 71.5 208.5t213.5 198t366 72.5q102 0 206.5 -33t196 -96t150.5 -153q-37 74 -37 172v381h143v-897zM-352 2032q-59 168 -222.5 262t-379.5 94q-300 0 -455 -234q35 17 139 38t255 21q261 0 422 -60t241 -121z
" />
    <glyph glyph-name="uni0E36" unicode="&#xe36;" horiz-adv-x="0" 
d="M-238 1905q-245 90 -462 129t-455 39q-225 0 -393 -21q0 60 38 144.5t95 147t133.5 104t172.5 62.5t212 21q122 0 184 -31q-16 29 -16 85q0 69 28.5 118.5t80 78t120.5 28.5q102 0 168 -63.5t66 -166.5q0 -179 -185 -217q71 -33 142 -146t71 -312zM-389 2568
q0 119 -115 119q-111 0 -111 -111q0 -118 115 -118q111 0 111 110zM-352 2032q-59 168 -222.5 262t-379.5 94q-300 0 -455 -234q35 17 139 38t255 21q261 0 422 -60t241 -121z" />
    <glyph glyph-name="uni0E37" unicode="&#xe37;" horiz-adv-x="0" 
d="M-238 1905q-245 90 -462 129t-455 39q-225 0 -393 -21q0 81 67 200t212.5 199t322.5 80q155 0 258 -38v309h143v-373q18 0 98.5 -71.5t93.5 -111.5q-28 131 -28 175v381h143v-897zM-352 2032q-59 168 -222.5 262t-379.5 94q-300 0 -455 -234q35 17 139 38t255 21
q261 0 422 -60t241 -121z" />
    <glyph glyph-name="uni0E38" unicode="&#xe38;" horiz-adv-x="0" 
d="M-233 -893h-144v205q0 54 39 112q11 17 19 27q-69 -69 -168 -69q-68 0 -119 30t-81 83.5t-30 123.5t33 123.5t89 86t128 32.5q63 0 114.5 -26.5t85.5 -81.5t34 -134v-512zM-356 -384q0 115 -115 115t-115 -115t115 -115t115 115z" />
    <glyph glyph-name="uni0E39" unicode="&#xe39;" horiz-adv-x="0" 
d="M-233 -893h-603v139h103v63q0 55 39 112q11 17 19 27q-69 -69 -168 -69q-68 0 -118.5 30t-81 83.5t-30.5 123.5t32.5 123t89 86t128.5 33q103 0 168.5 -67t65.5 -175v-370h212v607h144v-746zM-712 -387q0 115 -115 115t-115 -115t115 -115t115 115z" />
    <glyph glyph-name="uni0E3A" unicode="&#xe3a;" horiz-adv-x="0" 
d="M-143 -426q0 -60 -28.5 -106.5t-75 -74.5t-105.5 -28t-106 28t-75 75t-28 106q0 60 28.5 106.5t75 74.5t105.5 28t106 -28t75 -75t28 -106z" />
    <glyph glyph-name="glyph190" horiz-adv-x="901" 
 />
    <glyph glyph-name="glyph191" horiz-adv-x="901" 
d="M66 -287v164q0 71 12.5 93t89.5 22h578q82 0 94.5 -22t12.5 -93v-164q0 -119 -55 -119q-25 0 -48 99q-10 41 -36.5 84t-98.5 51t-149 8q-102 0 -164 -9.5t-87 -31t-51 -113.5q-24 -88 -55 -88q-43 0 -43 119z" />
    <glyph glyph-name="uni0E3F" unicode="&#xe3f;" horiz-adv-x="1790" 
d="M945 0v-271h-134v271h-580v1921h580v261h134v-261h10q180 0 313.5 -56.5t207 -166.5t73.5 -263q0 -125 -61.5 -232t-213.5 -193q197 -64 282 -184.5t85 -286.5q0 -162 -66 -279t-205.5 -188.5t-334.5 -71.5h-90zM811 1076v683h-394v-683h394zM945 1758v-682h34
q121 0 207.5 43t134 120t47.5 185q0 150 -93.5 238.5t-329.5 95.5zM945 913v-758h71q128 0 225 42t154.5 128t57.5 214q0 172 -117.5 273t-312.5 101h-78zM811 155v758h-394v-758h394z" />
    <glyph glyph-name="uni0E40" unicode="&#xe40;" horiz-adv-x="827" 
d="M283 1638h151v-1163q64 37 131 37q66 0 121 -29t94 -91t39 -146q0 -114 -79.5 -190t-194.5 -76t-188.5 75t-73.5 191v1392zM676 246q0 127 -125 127q-133 0 -133 -131q0 -127 126 -127q132 0 132 131z" />
    <glyph glyph-name="uni0E41" unicode="&#xe41;" horiz-adv-x="1540" 
d="M995 1638h151v-1163q64 37 131 37q74 0 130 -34.5t90 -94.5t34 -137q0 -114 -79.5 -190t-194.5 -76t-188.5 75t-73.5 191v1392zM1388 246q0 127 -125 127q-133 0 -133 -131q0 -127 126 -127q132 0 132 131zM283 1638h151v-1163q64 37 131 37q66 0 121 -29t94 -91t39 -146
q0 -114 -79.5 -190t-194.5 -76t-188.5 75t-73.5 191v1392zM676 246q0 127 -125 127q-133 0 -133 -131q0 -127 126 -127q132 0 132 131z" />
    <glyph glyph-name="uni0E42" unicode="&#xe42;" horiz-adv-x="995" 
d="M995 2089h-147q0 174 -96 285.5t-256 111.5q-127 0 -220 -87.5t-112 -183.5l438 -261v-1475q51 37 124 37q114 0 181.5 -74.5t67.5 -195.5q0 -75 -30 -134.5t-91 -95.5t-149 -36q-242 0 -242 270v1634l-463 275q97 467 500 467q149 0 258.5 -62.5t173 -172.5t63.5 -257
v-45zM844 238q0 135 -128 135q-130 0 -130 -127q0 -135 123 -135q135 0 135 127z" />
    <glyph glyph-name="uni0E43" unicode="&#xe43;" horiz-adv-x="1139" 
d="M156 2388q29 25 97 25q64 0 112.5 -27t75 -73t26.5 -109q0 -100 -63 -169t-158 -69q-246 0 -246 275q0 122 53 216t139.5 147.5t198.5 53.5q379 0 379 -504v-1695q59 53 134 53q235 0 235 -266t-275 -266q-237 0 -237 258v1896q0 381 -267 381q-144 0 -204 -127z
M344 2189q0 109 -103 109q-106 0 -106 -103q0 -106 104 -106q105 0 105 100zM1012 238q0 135 -133 135q-121 0 -121 -140q0 -131 121 -131q133 0 133 136z" />
    <glyph glyph-name="uni0E44" unicode="&#xe44;" horiz-adv-x="1065" 
d="M573 2511q-6 -14 -38 -70l-52 -74l-290 -413h-148q0 43 5 164q7 163 7 268q0 171 -53 416h131q53 -205 53 -392q0 -110 -20 -284l98 143l279 414h151v-2200q52 33 114 33q247 0 247 -270q0 -266 -275 -266q-233 0 -233 258v2134q0 48 14 101zM926 242q0 139 -123 139
q-131 0 -131 -139q0 -136 119 -136q135 0 135 136z" />
    <glyph glyph-name="uni0E45" unicode="&#xe45;" horiz-adv-x="1421" 
d="M1184 -995h-152v2113q0 123 -49 212t-131.5 137.5t-196.5 48.5q-153 0 -269 -109.5t-116 -259.5v-17h-147v29q0 206 159.5 353t372.5 147q227 0 378 -143.5t151 -368.5v-2142z" />
    <glyph glyph-name="uni0E46" unicode="&#xe46;" horiz-adv-x="1540" 
d="M1300 -995h-152v2482h-37q-156 0 -172 -197l-4 -49h-131l-4 49q-17 213 -279 213q-58 0 -86 -12q201 -16 201 -234q0 -104 -72.5 -174.5t-177.5 -70.5q-77 0 -139 34t-98.5 97t-36.5 147q0 109 50 185.5t144.5 119.5t223.5 43q130 0 223 -44t112 -132q0 64 68 120t215 56
h152v-2633zM505 1270q0 131 -134 131q-120 0 -120 -123q0 -131 134 -131q120 0 120 123z" />
    <glyph glyph-name="uni0E47" unicode="&#xe47;" horiz-adv-x="0" 
d="M-125 2564q-149 -158 -362 -158q-64 0 -156 11q-169 20 -214 20q-95 0 -146.5 -51t-51.5 -147q0 -105 99 -187q32 80 106 193q156 -220 271 -238q-50 54 -50 111q0 55 24.5 97t65.5 66.5t95 24.5q59 0 102.5 -26t69 -72.5t25.5 -107.5q0 -212 -277 -212q-81 0 -171.5 56
t-133.5 108q-12 0 -78 -164q-279 110 -279 353q0 323 373 323q49 0 191 -14q75 -7 130 -7q89 0 154 28.5t119 90.5zM-354 2109q0 91 -90 91q-82 0 -82 -86q0 -91 90 -91q82 0 82 86z" />
    <glyph glyph-name="glyph201" horiz-adv-x="0" 
d="M-233 2966h-156v573h156v-573z" />
    <glyph glyph-name="glyph202" horiz-adv-x="0" 
d="M0 3457q-100 -291 -310 -416t-472 -125q-79 0 -144 13l-8 86q186 92 279 258q-33 -45 -103 -45q-94 0 -151.5 63.5t-57.5 157.5q0 88 62 148.5t151 60.5q102 0 168 -74.5t66 -183.5q0 -258 -234 -381q216 0 385 131t246 360zM-647 3441q0 102 -103 102q-106 0 -106 -102
q0 -107 106 -107q103 0 103 107z" />
    <glyph glyph-name="glyph203" horiz-adv-x="0" 
d="M-1 3559q0 -225 -53 -353.5t-173.5 -188.5t-314.5 -60v74q156 84 156 254q0 139 -127 139q-92 0 -119 -90h-49q-39 94 -166 94q-43 0 -76 -17t-59.5 -56.5t-26.5 -94.5q0 -69 17 -82q18 119 142 119q71 0 126 -49.5t55 -122.5q0 -74 -50.5 -123t-125.5 -49q-70 0 -126 39
t-94 108t-38 152q0 120 64 209.5t175 89.5q120 0 203 -94q61 94 159 94q64 0 116.5 -29t83.5 -84t31 -130q0 -129 -91 -240q112 33 171 132.5t59 358.5h131zM-771 3117q0 86 -86 86q-66 0 -66 -70q0 -86 86 -86q66 0 66 70z" />
    <glyph glyph-name="glyph204" horiz-adv-x="0" 
d="M37 3252h-283v-286h-143v286h-283v144h283v282h143v-282h283v-144z" />
    <glyph glyph-name="glyph205" horiz-adv-x="0" 
d="M205 3187q-147 -127 -508 -127q-85 0 -123 -21q184 -25 184 -205q0 -65 -29.5 -115.5t-78.5 -80t-113 -29.5q-61 0 -111.5 25.5t-84 79.5t-33.5 129q0 157 121 244t321 91q246 5 393 119zM-356 2822q0 119 -119 119q-99 0 -99 -98q0 -119 113 -119q105 0 105 98z" />
    <glyph glyph-name="uni0E4D" unicode="&#xe4d;" horiz-adv-x="0" 
d="M-233 2348q0 -78 -35.5 -146t-107 -115t-165.5 -47q-87 0 -156 41.5t-110.5 110.5t-41.5 156t41.5 156t110.5 110.5t156 41.5t156 -41.5t110.5 -110.5t41.5 -156zM-373 2348q0 48 -22.5 85.5t-60 60t-85.5 22.5t-85.5 -22.5t-60 -60t-22.5 -85.5t22.5 -85.5t60 -60
t85.5 -22.5q43 0 80 19.5t62.5 58.5t25.5 90z" />
    <glyph glyph-name="uni0E4E" unicode="&#xe4e;" horiz-adv-x="0" 
d="M70 2814l-95 -61q-64 12 -98 12q-109 2 -204 -44.5t-95 -112.5q0 -57 82.5 -93.5t171.5 -36.5l-45 -94q-170 0 -283.5 -58.5t-113.5 -166.5q0 -95 164 -95q124 0 196 50l74 -58q-115 -94 -311 -94q-271 0 -271 201q0 119 119 202t258 89q-62 4 -118 52.5t-56 108.5
q0 104 121 168t307 64q129 0 197 -33z" />
    <glyph glyph-name="uni0E4F" unicode="&#xe4f;" horiz-adv-x="1282" 
d="M1151 748q0 -212 -149.5 -361t-360.5 -149q-144 0 -258 69t-182.5 182.5t-68.5 258.5q0 144 68.5 257.5t182.5 182.5t258 69t258 -69t183 -182.5t69 -257.5zM1086 748q0 125 -60 224.5t-159.5 159.5t-225.5 60q-112 0 -210 -51.5t-166 -154.5t-68 -238q0 -185 130 -315
t314 -130t314.5 129.5t130.5 315.5zM858 748q0 -55 -25 -103t-75.5 -81t-116.5 -33q-61 0 -109.5 29.5t-78 78t-29.5 109.5q0 89 63.5 153t153.5 64q61 0 109.5 -29t78 -78t29.5 -110z" />
    <glyph glyph-name="uni0E50" unicode="&#xe50;" horiz-adv-x="1896" 
d="M1647 545q0 -266 -201 -428t-500 -162q-208 0 -366.5 78.5t-244 207.5t-85.5 304q0 268 201.5 435t494.5 167q208 0 367 -80.5t246.5 -212t87.5 -309.5zM1499 545q0 209 -158 331.5t-395 122.5q-155 0 -280.5 -57t-195 -158.5t-69.5 -238.5q0 -136 67 -234t191.5 -157.5
t286.5 -59.5q240 0 396.5 122.5t156.5 328.5z" />
    <glyph glyph-name="uni0E51" unicode="&#xe51;" horiz-adv-x="1896" 
d="M1166 -221l-77 106q175 82 284 248t109 349q0 151 -72.5 264.5t-195 181t-277.5 67.5q-142 0 -252.5 -62.5t-174.5 -166t-64 -238.5q0 -190 101 -303.5t275 -113.5l21 4q-221 38 -221 251q0 106 76.5 185.5t189.5 79.5q122 0 198 -82t76 -209q0 -155 -111.5 -247.5
t-289.5 -92.5q-215 0 -337 158t-122 391q0 180 93 311t231.5 205t304.5 74q291 0 490.5 -181.5t199.5 -465.5q0 -236 -121 -425.5t-334 -287.5zM1023 365q0 135 -135 135t-135 -135q0 -136 135 -136t135 136z" />
    <glyph glyph-name="uni0E52" unicode="&#xe52;" horiz-adv-x="1995" 
d="M1802 0h-1519v1262q0 161 -39 214.5t-101 71.5l111 111q63 -39 86.5 -62t44 -62.5t31 -90.5t10.5 -113v-1192h1233v627q0 205 -164 205q-150 0 -238 -205q-117 209 -294 209q-218 0 -246 -238q67 99 188 99q115 0 193 -74t78 -189q0 -114 -78 -190t-193 -76
q-92 0 -159 46t-107.5 136.5t-40.5 210.5q0 123 51 216.5t130.5 145.5t183.5 52q186 0 294 -168q70 168 259 168q128 0 207 -90t79 -242v-782zM1028 573q0 136 -131 136q-127 0 -127 -127q0 -136 131 -136q127 0 127 127z" />
    <glyph glyph-name="uni0E53" unicode="&#xe53;" horiz-adv-x="1995" 
d="M1757 0h-143v733q0 234 -184 234q-46 0 -80 -19t-65 -62t-54 -115t-23 -157v-614h-143v569q0 175 -91 288.5t-245 113.5q-163 0 -268 -146.5t-105 -332.5q0 -114 33 -205q37 98 55 121q65 88 195 88q75 0 133.5 -35t93.5 -94t35 -134q0 -112 -74.5 -182.5t-187.5 -70.5
q-189 0 -305.5 155t-116.5 373q0 254 143 430t373 176q298 0 397 -262q79 262 316 262q311 0 311 -356v-758zM758 233q0 132 -131 132q-127 0 -127 -127q0 -132 131 -132q127 0 127 127z" />
    <glyph glyph-name="uni0E54" unicode="&#xe54;" horiz-adv-x="1995" 
d="M1995 1253q-33 -68 -85 -122t-120.5 -91.5t-139 -58t-131.5 -28t-155 -7.5l-455 12q-110 0 -191 -20t-161 -69.5t-124 -126t-44 -173.5q0 -222 152 -332t459 -110q-271 108 -271 393q0 85 37.5 150.5t99 103t142.5 37.5q270 0 270 -270q0 -242 -262 -242q-66 0 -107 33
q64 -86 193 -139.5t270 -53.5h324v-139h-799q-210 0 -355.5 65.5t-220.5 188.5t-75 303q0 109 35.5 197t105 156.5t155 112t169.5 61.5t198 18l455 -12q93 0 157 9t135.5 36.5t128 79t91.5 124.5zM1151 541q0 135 -135 135t-135 -135t135 -135t135 135z" />
    <glyph glyph-name="uni0E55" unicode="&#xe55;" horiz-adv-x="1995" 
d="M1992 1253q-148 -311 -709 -311q-139 0 -377 29q-144 0 -259 -53t-188 -159t-73 -250q0 -382 611 -382q-271 108 -271 393q0 85 37.5 150.5t99 103t142.5 37.5q118 0 194 -76t76 -188q0 -248 -262 -248q-66 0 -107 33q64 -86 193 -139.5t270 -53.5h324v-139h-799
q-303 0 -477 143t-174 406q0 167 140 323.5t360 192.5q-177 88 -177 274q0 123 88 209t211 86q136 0 222 -81t86 -214q0 -154 -136 -249q113 -13 230 -13q482 0 606 262zM1033 1339q0 156 -168 156q-64 0 -113.5 -47t-49.5 -114q0 -137 163 -220q168 80 168 225zM1148 541
q0 135 -135 135t-135 -135t135 -135t135 135z" />
    <glyph glyph-name="uni0E56" unicode="&#xe56;" horiz-adv-x="1896" 
d="M690 115q39 -21 60 -21q124 0 245 34.5t249 109.5t197.5 173.5t69.5 215.5q0 160 -152 245.5t-378 85.5q-345 0 -641 -176v480q0 142 -32 202.5t-107 83.5l110 111q109 -61 140.5 -145t31.5 -183v-344q240 115 500 115q672 0 672 -471q0 -279 -255.5 -465t-569.5 -186
q-205 0 -358 90.5t-153 248.5q0 115 81.5 193t197.5 78q67 0 121 -29t91.5 -93t37.5 -157q0 -49 -21 -90.5t-57.5 -71.5t-79.5 -34zM717 319q0 136 -135 136q-119 0 -119 -119q0 -135 135 -135q119 0 119 118z" />
    <glyph glyph-name="uni0E57" unicode="&#xe57;" horiz-adv-x="1995" 
d="M1892 1548q-35 0 -94 -69q-41 -62 -41 -217v-930q0 -173 -93.5 -252.5t-217.5 -79.5h-221v733q0 221 -135 221q-143 0 -181 -221h-94q-24 225 -225 225q-105 0 -179.5 -110.5t-74.5 -237.5q0 -178 74 -348q0 101 67 167.5t182 66.5q76 0 135 -34.5t93.5 -93.5t34.5 -135
q0 -253 -279 -253q-213 0 -331.5 188t-118.5 450q0 138 59.5 251.5t152 179t209.5 65.5q202 0 250 -205q68 205 242 205q115 0 188.5 -82t73.5 -205v-688h78q50 0 91 25t59 66.5t18 101.5v999q0 62 10.5 113t31 90.5t44 62.5t86.5 62zM774 233q0 132 -131 132
q-127 0 -127 -127q0 -132 131 -132q127 0 127 127z" />
    <glyph glyph-name="uni0E58" unicode="&#xe58;" horiz-adv-x="1995" 
d="M1994 1253q-38 -80 -97 -139.5t-138.5 -98t-169 -54t-226.5 -15.5l-455 12q-142 0 -226.5 -29.5t-148.5 -76t-104.5 -118t-40.5 -181.5q0 -186 68 -286q103 253 241 253q74 0 167 -64q164 -132 352 -270q0 69 12 133.5t76.5 122.5t160.5 58q113 0 192 -73t79 -185
q0 -77 -34.5 -140t-104.5 -105t-166 -42q-41 0 -86.5 12.5t-94.5 36.5t-79 44.5t-229 168.5q-192 143 -251 143q-95 0 -209 -380q-237 241 -237 575q0 110 35.5 198.5t104.5 156.5t154 112t169.5 62t199.5 18l455 -12q140 0 233.5 24t165.5 81t113 144zM1601 238
q0 131 -131 131q-136 0 -136 -136q0 -131 131 -131q136 0 136 136z" />
    <glyph glyph-name="uni0E59" unicode="&#xe59;" horiz-adv-x="1995" 
d="M1696 754q-72 217 -213 217q-164 0 -164 -258q0 -109 41 -201l115 -258q30 -68 56 -103t71 -60l24 -13l-70 -115q-24 0 -88 47t-108 150l-193 442q-161 369 -442 369q-174 0 -290 -122.5t-116 -305.5q0 -279 225 -398q-44 53 -44 129q0 112 77 189.5t189 77.5
q76 0 135 -36t95 -97t36 -138q0 -130 -105 -210.5t-247 -80.5q-141 0 -249.5 74t-179.5 207.5t-71 292.5q0 244 153 402.5t389 158.5q353 0 490 -332q0 151 70.5 243.5t196.5 92.5q155 0 250 -147l24 -37q52 27 75 73.5t23 131.5v229q0 96 -15 126t-67 62l95 103
q78 -43 102 -91q29 -55 29 -184v-245q0 -102 -35.5 -180.5t-113 -136t-150.5 -68.5zM889 266q0 131 -131 131q-127 0 -127 -131t127 -131q131 0 131 131z" />
    <glyph glyph-name="uni0E5A" unicode="&#xe5a;" horiz-adv-x="1675" 
d="M1204 0h-151v1110l53 303l-12 4q-46 -188 -196.5 -312t-335.5 -124q-137 0 -250 58t-173.5 142.5t-60.5 194.5q0 116 75 199.5t187 83.5q70 0 128 -29t96 -87.5t38 -141.5q0 -111 -67.5 -182.5t-174.5 -71.5q119 -33 140 -33q138 0 247.5 61t189 179.5t116.5 283.5h151
v-1638zM471 1393q0 127 -127 127t-127 -127t127 -127t127 127zM1536 0h-143v1630h143v-1630z" />
    <glyph glyph-name="uni0E5B" unicode="&#xe5b;" horiz-adv-x="3244" 
d="M3183 836l-50 -221q-25 -111 -85 -186.5t-132.5 -112.5t-157.5 -37q-177 0 -285 162l-110 165l-127 -176q-77 -107 -124 -107q-34 0 -133 156l-83 131q-192 -278 -239 -278q-35 0 -124 106q-26 27 -82 98q-213 -520 -648 -520q-225 0 -380 86t-240 251t-85 401
q0 226 82.5 391t233 259.5t352.5 94.5q209 0 434 -131l-12 -180q-196 143 -418 143q-230 0 -360.5 -167t-130.5 -439q0 -160 54.5 -280.5t166.5 -190.5t278 -70q87 0 163.5 25.5t141 76t112.5 116.5t226 425q62 -95 246 -303l115 152q50 76 127 155q30 0 90 -106l119 -213
q48 64 147 204q76 107 102 107q11 0 204 -265q96 -132 163 -132q190 0 240 184q24 73 61 226h148z" />
    <glyph glyph-name="glyph221" horiz-adv-x="0" 
d="M-233 -1999h-144v291q0 54 39 112q11 17 19 27q-69 -69 -168 -69q-68 0 -119 30t-81 83.5t-30 123.5q0 103 73 172.5t177 69.5q103 0 168.5 -67t65.5 -175v-598zM-356 -1404q0 115 -115 115t-115 -115t115 -115t115 115z" />
    <glyph glyph-name="glyph222" horiz-adv-x="0" 
d="M-233 -2000h-603v140h103v146q0 54 39 112q11 17 19 27q-69 -69 -168 -69q-101 0 -165.5 67.5t-64.5 169.5q0 103 73 172.5t177 69.5q103 0 168.5 -67t65.5 -175v-453h212v692h144v-832zM-712 -1410q0 115 -115 115t-115 -115t115 -115t115 115z" />
    <glyph glyph-name="glyph223" horiz-adv-x="0" 
d="M-143 -1199q0 -59 -28 -106t-75 -75t-106 -28q-60 0 -106.5 28.5t-74.5 75t-28 105.5t28 106t75 75t106 28q53 0 99 -24t78 -72.5t32 -112.5z" />
    <glyph glyph-name="exclamdown" unicode="&#xa1;" horiz-adv-x="926" 
d="M570 1164h-214v210h214v-210zM580 -548h-234v404l68 1022h94l72 -1020v-406z" />
    <glyph glyph-name="cent" unicode="&#xa2;" horiz-adv-x="1546" 
d="M1362 438q-43 -213 -199 -344.5t-367 -131.5q-67 0 -164 28l-160 -538l-86 26l156 536q-362 166 -362 666q0 380 178 554t426 174q42 0 160 -14l152 520l84 -24l-150 -522q247 -97 306 -356l-172 -26q-34 136 -172 254l-326 -1124q82 -22 126 -22q145 0 255 96t143 266z
M910 1274l-112 6q-181 0 -308.5 -140.5t-127.5 -447.5q0 -216 53 -335.5t167 -206.5z" />
    <glyph glyph-name="sterling" unicode="&#xa3;" horiz-adv-x="1546" 
d="M1426 36q-169 -70 -288 -70q-93 0 -282 58l-182 54q-73 10 -134 10q-209 0 -394 -110l-68 170q304 193 304 546q0 98 -30 204h-258v132h220q-80 264 -80 392q0 273 179.5 403.5t402.5 130.5q221 0 370 -118.5t190 -333.5l-174 -26q-28 158 -136 251t-256 93
q-165 0 -274.5 -106.5t-109.5 -257.5t86 -428h420v-132h-404q44 -101 44 -156q0 -258 -310 -578q223 58 298 58q102 0 244 -34q236 -56 324 -56q105 0 242 62z" />
    <glyph glyph-name="currency" unicode="&#xa4;" horiz-adv-x="1546" 
d="M1388 446l-110 -112l-184 186q-161 -110 -328 -110q-164 0 -324 110l-186 -186l-108 112l186 182q-108 161 -108 324q0 161 108 324l-186 180l108 112l186 -184q152 108 324 108q171 0 328 -108l184 184l110 -112l-186 -180q106 -159 106 -324t-106 -324zM1152 952
q0 158 -113 271t-273 113q-165 0 -275.5 -113.5t-110.5 -270.5q0 -163 113.5 -275.5t272.5 -112.5q138 0 262 103t124 285z" />
    <glyph glyph-name="yen" unicode="&#xa5;" horiz-adv-x="1546" 
d="M1480 1922l-550 -966h488v-132h-560v-262h560v-120h-560v-442h-176v442h-564v120h564v262h-564v132h488l-552 966h194l384 -682q36 -67 61 -119q29 -61 71 -161q38 89 69.5 152t72.5 140l362 670h212z" />
    <glyph glyph-name="brokenbar" unicode="&#xa6;" horiz-adv-x="722" 
d="M434 952h-144v1004h144v-1004zM434 -586h-144v1006h144v-1006z" />
    <glyph glyph-name="section" unicode="&#xa7;" horiz-adv-x="1546" 
d="M1076 197q216 -160 216 -371q0 -199 -154 -305.5t-350 -106.5q-477 0 -554 428l180 26q76 -314 372 -314q123 0 225.5 69t102.5 201q0 66 -52 137t-127 127.5t-347 223.5q-252 154 -348 268.5t-96 259.5q0 304 305 400q-175 160 -175 322q0 176 134 285t328 109
q458 0 528 -408l-188 -18q-58 292 -318 292q-111 0 -211.5 -65.5t-100.5 -182.5q0 -66 48 -136.5t111 -117.5t321 -204q198 -121 279 -184t130 -150t49 -186q0 -187 -129 -281q-39 -38 -179 -118zM540 1172q-242 -128 -242 -304q0 -116 84 -202t274 -198q173 -102 310 -196
q256 123 256 280q0 175 -392 420q-213 133 -290 200z" />
    <glyph glyph-name="dieresis" unicode="&#xa8;" horiz-adv-x="926" 
d="M810 1724h-186v210h186v-210zM304 1724h-188v210h188v-210z" />
    <glyph glyph-name="copyright" unicode="&#xa9;" horiz-adv-x="2048" 
d="M2018 966q0 -257 -133 -497.5t-369 -366.5t-488 -126t-488.5 128.5t-369 366.5t-132.5 495q0 261 136.5 501t375.5 364.5t478 124.5q256 0 496.5 -134t367 -369t126.5 -487zM1916 966q0 371 -261.5 629.5t-626.5 258.5q-372 0 -630 -259t-258 -629q0 -356 253 -622
t635 -266q374 0 631 257t257 631zM1484 728q-107 -316 -454 -316q-224 0 -364 144.5t-140 405.5q0 258 139.5 401t376.5 143q315 0 418 -262l-98 -24q-102 202 -326 202q-173 0 -282.5 -121t-109.5 -343q0 -221 104.5 -337.5t271.5 -116.5q274 0 360 254z" />
    <glyph glyph-name="ordfeminine" unicode="&#xaa;" horiz-adv-x="1028" 
d="M916 1038h-120q-24 55 -24 156q-206 -182 -376 -182q-119 0 -208.5 66t-89.5 198q0 215 302 256l200 30q67 10 158 36q0 146 -48 206t-198 60q-208 0 -252 -162l-120 30q64 224 374 224q188 0 280 -63t92 -231v-326l-2 -84q-3 -124 32 -214zM760 1510
q-126 -34 -281 -56.5t-201 -68t-46 -107.5q0 -71 56 -120.5t154 -49.5q112 0 189 57.5t103 120t26 224.5z" />
    <glyph glyph-name="guillemotleft" unicode="&#xab;" horiz-adv-x="1546" 
d="M1286 98h-130l-400 584l400 586h130l-338 -586zM758 1268l-334 -584l330 -586h-122l-410 584l410 586h126z" />
    <glyph glyph-name="logicalnot" unicode="&#xac;" horiz-adv-x="1624" 
d="M1434 576h-162v594h-1084v160h1246v-754z" />
    <glyph glyph-name="minus" unicode="&#xad;" horiz-adv-x="926" 
d="M804 598h-682v178h682v-178z" />
    <glyph glyph-name="registered" unicode="&#xae;" horiz-adv-x="2048" 
d="M2018 966q0 -257 -133 -497.5t-369 -366.5t-488 -126t-488.5 128.5t-369 366.5t-132.5 495q0 261 136.5 501t375.5 364.5t478 124.5q256 0 496.5 -134t367 -369t126.5 -487zM1916 966q0 371 -261.5 629.5t-626.5 258.5q-372 0 -630 -259t-258 -629q0 -356 253 -622
t635 -266q374 0 631 257t257 631zM1444 432h-136l-88 158q-90 162 -162 237t-196 75h-138v-470h-110v1036h344q290 0 364 -86.5t74 -179.5q0 -108 -83.5 -192t-250.5 -89l48 -37q80 -49 232 -286zM724 1386v-400h250q300 0 300 202q0 76 -57.5 137t-256.5 61h-236z" />
    <glyph glyph-name="macron" unicode="&#xaf;" horiz-adv-x="1536" 
d="M1544 2126h-1552v106h1552v-106z" />
    <glyph glyph-name="degree" unicode="&#xb0;" horiz-adv-x="1112" 
d="M894 1614q0 -139 -102.5 -241.5t-241.5 -102.5t-240.5 101.5t-101.5 242.5q0 139 100 240.5t242 101.5q139 0 241.5 -101t102.5 -241zM814 1614q0 105 -76.5 184.5t-185.5 79.5q-110 0 -187 -77t-77 -185q0 -56 18.5 -102.5t57.5 -85t85.5 -58.5t100.5 -20
q110 0 187 78.5t77 185.5z" />
    <glyph glyph-name="plusminus" unicode="&#xb1;" horiz-adv-x="1526" 
d="M1386 900h-542v-548h-162v548h-542v158h542v542h162v-542h542v-158zM1386 0h-1246v160h1246v-160z" />
    <glyph glyph-name="twosuperior" unicode="&#xb2;" horiz-adv-x="926" 
d="M846 994h-772q36 143 326 352q182 132 238 190t56 134q0 82 -57 133t-163 51q-176 0 -230 -152l-138 16q74 228 372 228q195 0 278.5 -71.5t83.5 -170.5q0 -95 -61.5 -178.5t-282.5 -241.5q-115 -84 -220 -192h570v-98z" />
    <glyph glyph-name="threesuperior" unicode="&#xb3;" horiz-adv-x="926" 
d="M86 1198l134 12q57 -148 232 -148q103 0 175.5 59.5t72.5 154.5q0 110 -71 145.5t-211 42.5l14 74q84 0 151 44.5t67 125.5q0 156 -196 156q-154 0 -212 -134l-126 20q89 196 340 196q340 0 340 -220q0 -160 -202 -223q248 -57 248 -253q0 -135 -111.5 -207.5
t-266.5 -72.5q-308 0 -378 228z" />
    <glyph glyph-name="acute" unicode="&#xb4;" horiz-adv-x="926" 
d="M732 1932l-244 -312h-132l148 312h228z" />
    <glyph glyph-name="mu" unicode="&#xb5;" horiz-adv-x="1602" 
d="M1348 0h-150v252q-132 -215 -225.5 -250.5t-170.5 -35.5t-156.5 27t-221.5 217v-762h-172v1926h172v-578q0 -367 46 -466.5t131 -154.5t191 -55q116 0 207.5 61.5t134 163t42.5 447.5v582h172v-1374z" />
    <glyph glyph-name="paragraph" unicode="&#xb6;" horiz-adv-x="1494" 
d="M1468 1756h-194v-2308h-164v2308h-370v-2308h-156v1416q-247 0 -397.5 142t-150.5 378q0 216 136 377t472 161h824v-166z" />
    <glyph glyph-name="periodcentered" unicode="&#xb7;" horiz-adv-x="772" 
d="M496 840h-210v210h210v-210z" />
    <glyph glyph-name="periodcentered" unicode="&#x2219;" horiz-adv-x="772" 
d="M496 840h-210v210h210v-210z" />
    <glyph glyph-name="cedilla" unicode="&#xb8;" horiz-adv-x="926" 
d="M182 -560l10 94l94 -4q254 0 254 136q0 31 -22 66q-54 56 -180 56l52 176h110l-42 -144q114 0 178 -50t64 -118q0 -73 -80.5 -148.5t-279.5 -75.5q-86 0 -158 12z" />
    <glyph glyph-name="onesuperior" unicode="&#xb9;" horiz-adv-x="926" 
d="M612 994h-128v790q-173 -138 -304 -180v98q190 78 336 244h96v-952z" />
    <glyph glyph-name="ordmasculine" unicode="&#xba;" horiz-adv-x="1016" 
d="M918 1480q0 -222 -116.5 -349t-293.5 -127q-159 0 -285.5 110.5t-126.5 359.5q0 258 126 370t284 112q182 0 297 -125.5t115 -350.5zM784 1486q0 196 -85.5 277t-192.5 81q-278 0 -278 -364q0 -183 78.5 -273.5t199.5 -90.5q278 0 278 370z" />
    <glyph glyph-name="guillemotright" unicode="&#xbb;" horiz-adv-x="1546" 
d="M1312 682l-408 -584h-124l334 586l-336 584h126zM780 682l-402 -584h-128l340 584l-340 586h128z" />
    <glyph glyph-name="onequarter" unicode="&#xbc;" horiz-adv-x="2318" 
d="M1984 1956l-1446 -2034h-130l1446 2034h130zM612 994h-128v790q-173 -138 -304 -180v98q190 78 336 244h96v-952zM2244 166h-142v-208h-128v208h-518v122l530 622h116v-664h142v-80zM1974 246v480l-420 -480h420z" />
    <glyph glyph-name="onehalf" unicode="&#xbd;" horiz-adv-x="2318" 
d="M1952 1956l-1446 -2034h-132l1446 2034h132zM612 994h-128v790q-173 -138 -304 -180v98q190 78 336 244h96v-952zM2236 -42h-772q49 153 324 352q188 135 242 192t54 132q0 182 -220 182q-105 0 -152 -36.5t-78 -113.5l-136 12q70 232 370 232q195 0 278.5 -71.5
t83.5 -170.5q0 -105 -72.5 -192t-271.5 -230q-121 -89 -226 -192h576v-96z" />
    <glyph glyph-name="threequarters" unicode="&#xbe;" horiz-adv-x="2318" 
d="M1984 1956l-1446 -2034h-130l1444 2034h132zM86 1198l134 12q57 -148 232 -148q103 0 175.5 59.5t72.5 154.5q0 110 -71 145.5t-211 42.5l14 74q84 0 151 44.5t67 125.5q0 156 -196 156q-154 0 -212 -134l-126 20q89 196 340 196q340 0 340 -220q0 -160 -202 -223
q248 -57 248 -253q0 -135 -111.5 -207.5t-266.5 -72.5q-308 0 -378 228zM2244 166h-142v-208h-128v208h-518v122l528 622h118v-664h142v-80zM1974 246v480l-420 -480h420z" />
    <glyph glyph-name="questiondown" unicode="&#xbf;" horiz-adv-x="1698" 
d="M960 1164h-210v210h210v-210zM1460 -72q-90 -510 -606 -510q-287 0 -446.5 151.5t-159.5 356.5q0 123 56.5 225t231.5 257q146 128 193 211.5t47 264.5h168q0 -28 2 -38q0 -183 -59 -287t-243 -267q-132 -117 -172 -188t-40 -162q0 -162 123.5 -277t294.5 -115
q157 0 271.5 98.5t154.5 299.5z" />
    <glyph glyph-name="Agrave" unicode="&#xc0;" horiz-adv-x="1790" 
d="M1789 0h-205l-250 612h-896l-241 -612h-197l781 1921h190zM1272 763l-398 967l-380 -967h778zM966 2054h-133l-295 347h260z" />
    <glyph glyph-name="Aacute" unicode="&#xc1;" horiz-adv-x="1790" 
d="M1789 0h-205l-250 612h-896l-241 -612h-197l781 1921h190zM1272 763l-398 967l-380 -967h778zM1152 2366l-244 -312h-132l148 312h228z" />
    <glyph glyph-name="Acircumflex" unicode="&#xc2;" horiz-adv-x="1790" 
d="M1789 0h-205l-250 612h-896l-241 -612h-197l781 1921h190zM1272 763l-398 967l-380 -967h778zM1222 2054h-186l-171 224l-171 -224h-190l240 312h228z" />
    <glyph glyph-name="Atilde" unicode="&#xc3;" horiz-adv-x="1790" 
d="M1789 0h-205l-250 612h-896l-241 -612h-197l781 1921h190zM1272 763l-398 967l-380 -967h778zM1282 2300q0 -105 -67 -173.5t-163 -68.5q-72 0 -210 72q-94 54 -148 54q-117 0 -136 -130h-114q9 114 77.5 178t164.5 64q74 0 214 -70q85 -44 142 -44q105 0 128 118h112z
" />
    <glyph glyph-name="Adieresis" unicode="&#xc4;" horiz-adv-x="1790" 
d="M1789 0h-205l-250 612h-896l-241 -612h-197l781 1921h190zM1272 763l-398 967l-380 -967h778zM1210 2124h-186v210h186v-210zM704 2124h-188v210h188v-210z" />
    <glyph glyph-name="Aring" unicode="&#xc5;" horiz-adv-x="1790" 
d="M1789 0h-205l-250 612h-896l-241 -612h-197l781 1921h190zM1272 763l-398 967l-380 -967h778zM664 2232q0 99 67.5 154.5t143.5 55.5q80 0 145.5 -52t65.5 -158q0 -100 -67.5 -155.5t-143.5 -55.5t-143.5 55.5t-67.5 155.5zM734 2229q0 -52 37.5 -98.5t103.5 -46.5
q59 0 100 43t41 102q0 54 -37.5 101.5t-103.5 47.5t-103.5 -47.5t-37.5 -101.5z" />
    <glyph glyph-name="AE" unicode="&#xc6;" horiz-adv-x="2780" 
d="M2594 0h-1234v574h-824l-272 -574h-208l924 1922h1578v-166h-1002v-680h930v-166h-930v-744h1038v-166zM1360 740v1016h-252l-492 -1016h744z" />
    <glyph glyph-name="Ccedilla" unicode="&#xc7;" horiz-adv-x="1938" 
d="M1820 604q-191 -637 -797 -637q-204 0 -361.5 64t-269 191.5t-178.5 323.5t-67 412q0 438 240 717t643 279q271 0 464.5 -135.5t299.5 -426.5l-174 -48q-160 459 -578 459q-325 0 -515 -239.5t-190 -608.5q0 -414 192 -626t485 -212q482 0 640 532zM729 -524l10 94l94 -4
q254 0 254 136q0 31 -22 66q-54 56 -180 56l52 176h110l-42 -144q114 0 178 -50t64 -118q0 -73 -80.5 -148.5t-279.5 -75.5q-86 0 -158 12z" />
    <glyph glyph-name="Egrave" unicode="&#xc8;" horiz-adv-x="1639" 
d="M1510 0h-1268v1921h1228v-162h-1045v-690h967v-158h-967v-752h1085v-159zM986 2054h-133l-295 347h260z" />
    <glyph glyph-name="Eacute" unicode="&#xc9;" horiz-adv-x="1639" 
d="M1510 0h-1268v1921h1228v-162h-1045v-690h967v-158h-967v-752h1085v-159zM1132 2412l-244 -312h-132l148 312h228z" />
    <glyph glyph-name="Ecircumflex" unicode="&#xca;" horiz-adv-x="1639" 
d="M1510 0h-1268v1921h1228v-162h-1045v-690h967v-158h-967v-752h1085v-159zM1212 2100h-186l-171 224l-171 -224h-190l240 312h228z" />
    <glyph glyph-name="Edieresis" unicode="&#xcb;" horiz-adv-x="1639" 
d="M1510 0h-1268v1921h1228v-162h-1045v-690h967v-158h-967v-752h1085v-159zM1210 2084h-186v210h186v-210zM704 2084h-188v210h188v-210z" />
    <glyph glyph-name="Igrave" unicode="&#xcc;" horiz-adv-x="746" 
d="M468 0h-181v1921h181v-1921zM496 2054h-133l-295 347h260z" />
    <glyph glyph-name="Iacute" unicode="&#xcd;" horiz-adv-x="746" 
d="M468 0h-181v1921h181v-1921zM652 2412l-244 -312h-132l148 312h228z" />
    <glyph glyph-name="Icircumflex" unicode="&#xce;" horiz-adv-x="746" 
d="M468 0h-181v1921h181v-1921zM742 2100h-186l-171 224l-171 -224h-190l240 312h228z" />
    <glyph glyph-name="Idieresis" unicode="&#xcf;" horiz-adv-x="746" 
d="M468 0h-181v1921h181v-1921zM735 2124h-186v210h186v-210zM229 2124h-188v210h188v-210z" />
    <glyph glyph-name="Eth" unicode="&#xd0;" horiz-adv-x="2008" 
d="M248 0v906h-218v110h218v906h654q313 0 483 -74.5t305.5 -288.5t135.5 -587q0 -972 -894 -972h-684zM444 1756v-740h548v-110h-548v-740h458q430 0 575 226.5t145 581.5q0 364 -143 573t-583 209h-452z" />
    <glyph glyph-name="Ntilde" unicode="&#xd1;" horiz-adv-x="1938" 
d="M1698 0h-192l-1108 1637l15 -1637h-182v1921h182l1120 -1656l-14 1656h179v-1921zM1402 2300q0 -105 -67 -173.5t-163 -68.5q-72 0 -210 72q-94 54 -148 54q-117 0 -136 -130h-114q9 114 77.5 178t164.5 64q74 0 214 -70q85 -44 142 -44q105 0 128 118h112z" />
    <glyph glyph-name="Ograve" unicode="&#xd2;" horiz-adv-x="2087" 
d="M1943 960q0 -450 -238 -721.5t-657 -271.5q-276 0 -472.5 120t-308.5 343t-112 530q0 449 239 721.5t654 272.5q280 0 478 -122t307.5 -344.5t109.5 -527.5zM1753 960q0 378 -188 611t-517 233q-331 0 -517 -234t-186 -610q0 -373 189 -608t514 -235q215 0 369 102.5
t245 294t91 446.5zM1116 2074h-133l-295 347h260z" />
    <glyph glyph-name="Oacute" unicode="&#xd3;" horiz-adv-x="2087" 
d="M1943 960q0 -450 -238 -721.5t-657 -271.5q-276 0 -472.5 120t-308.5 343t-112 530q0 449 239 721.5t654 272.5q280 0 478 -122t307.5 -344.5t109.5 -527.5zM1753 960q0 378 -188 611t-517 233q-331 0 -517 -234t-186 -610q0 -373 189 -608t514 -235q215 0 369 102.5
t245 294t91 446.5zM1322 2432l-244 -312h-132l148 312h228z" />
    <glyph glyph-name="Ocircumflex" unicode="&#xd4;" horiz-adv-x="2087" 
d="M1943 960q0 -450 -238 -721.5t-657 -271.5q-276 0 -472.5 120t-308.5 343t-112 530q0 449 239 721.5t654 272.5q280 0 478 -122t307.5 -344.5t109.5 -527.5zM1753 960q0 378 -188 611t-517 233q-331 0 -517 -234t-186 -610q0 -373 189 -608t514 -235q215 0 369 102.5
t245 294t91 446.5zM1412 2120h-186l-171 224l-171 -224h-190l240 312h228z" />
    <glyph glyph-name="Otilde" unicode="&#xd5;" horiz-adv-x="2087" 
d="M1943 960q0 -450 -238 -721.5t-657 -271.5q-276 0 -472.5 120t-308.5 343t-112 530q0 449 239 721.5t654 272.5q280 0 478 -122t307.5 -344.5t109.5 -527.5zM1753 960q0 378 -188 611t-517 233q-331 0 -517 -234t-186 -610q0 -373 189 -608t514 -235q215 0 369 102.5
t245 294t91 446.5zM1472 2340q0 -105 -67 -173.5t-163 -68.5q-72 0 -210 72q-94 54 -148 54q-117 0 -136 -130h-114q9 114 77.5 178t164.5 64q74 0 214 -70q85 -44 142 -44q105 0 128 118h112z" />
    <glyph glyph-name="Odieresis" unicode="&#xd6;" horiz-adv-x="2087" 
d="M1943 960q0 -450 -238 -721.5t-657 -271.5q-276 0 -472.5 120t-308.5 343t-112 530q0 449 239 721.5t654 272.5q280 0 478 -122t307.5 -344.5t109.5 -527.5zM1753 960q0 378 -188 611t-517 233q-331 0 -517 -234t-186 -610q0 -373 189 -608t514 -235q215 0 369 102.5
t245 294t91 446.5zM1410 2164h-186v210h186v-210zM904 2164h-188v210h188v-210z" />
    <glyph glyph-name="multiply" unicode="&#xd7;" horiz-adv-x="1624" 
d="M1354 524l-118 -116l-424 426l-430 -428l-114 116l428 426l-428 426l118 118l428 -426l422 424l114 -116l-422 -424z" />
    <glyph glyph-name="Oslash" unicode="&#xd8;" horiz-adv-x="2162" 
d="M2010 1912l-234 -262q132 -195 177 -341t45 -349q0 -442 -247.5 -718t-662.5 -276q-328 0 -618 222l-228 -254l-80 68l232 262q-146 222 -189 366t-43 326q0 450 249.5 725t672.5 275q317 0 618 -228l226 254zM1586 1596q-262 202 -500 202q-341 0 -530.5 -227
t-189.5 -611q0 -307 148 -562zM1654 1510l-1066 -1192q220 -194 492 -194q361 0 537.5 244t176.5 584q0 296 -140 558z" />
    <glyph glyph-name="Ugrave" unicode="&#xd9;" horiz-adv-x="1938" 
d="M229 1921h185v-1230q0 -574 553 -574q548 0 548 571v1233h185v-1215q0 -739 -729 -739q-742 0 -742 738v1216zM1036 2054h-133l-295 347h260z" />
    <glyph glyph-name="Uacute" unicode="&#xda;" horiz-adv-x="1938" 
d="M229 1921h185v-1230q0 -574 553 -574q548 0 548 571v1233h185v-1215q0 -739 -729 -739q-742 0 -742 738v1216zM1192 2412l-244 -312h-132l148 312h228z" />
    <glyph glyph-name="Ucircumflex" unicode="&#xdb;" horiz-adv-x="1938" 
d="M229 1921h185v-1230q0 -574 553 -574q548 0 548 571v1233h185v-1215q0 -739 -729 -739q-742 0 -742 738v1216zM1312 2100h-186l-171 224l-171 -224h-190l240 312h228z" />
    <glyph glyph-name="Udieresis" unicode="&#xdc;" horiz-adv-x="1938" 
d="M229 1921h185v-1230q0 -574 553 -574q548 0 548 571v1233h185v-1215q0 -739 -729 -739q-742 0 -742 738v1216zM1300 2124h-186v210h186v-210zM794 2124h-188v210h188v-210z" />
    <glyph glyph-name="Yacute" unicode="&#xdd;" horiz-adv-x="1639" 
d="M1627 1921l-723 -1092v-829h-182v829l-700 1092h214l587 -921l600 921h204zM1092 2412l-244 -312h-132l148 312h228z" />
    <glyph glyph-name="Thorn" unicode="&#xde;" horiz-adv-x="1854" 
d="M444 404v-404h-196v1922h196v-404h522q255 0 409 -48t239.5 -187t85.5 -309q0 -570 -712 -570h-544zM444 1350v-778h548q504 0 504 394q0 115 -54.5 210.5t-141.5 134.5t-314 39h-542z" />
    <glyph glyph-name="germandbls" unicode="&#xdf;" horiz-adv-x="1698" 
d="M670 242l150 70q116 -212 292 -212q102 0 193 71.5t91 198.5q0 80 -39 133t-173 145q-220 152 -268 226t-48 138q0 88 102 262q118 202 118 302q0 109 -90.5 177.5t-215.5 68.5q-364 0 -364 -510v-1312h-176v1322q0 634 546 634q176 0 322 -90t146 -266q0 -121 -107 -309
q-99 -174 -99 -243q0 -106 210 -246q177 -117 247.5 -200.5t70.5 -211.5q0 -185 -134 -304.5t-328 -119.5q-300 0 -446 276z" />
    <glyph glyph-name="agrave" unicode="&#xe0;" 
d="M1360 0h-178q-39 98 -51 212q-226 -243 -569 -243q-125 0 -223.5 43.5t-157.5 130.5t-59 212q0 88 27.5 157.5t83.5 122t151 90t342 71.5q275 38 389 81q0 119 -6.5 183t-44.5 120t-117 86t-195 30q-361 0 -434 -309l-166 25q77 411 599 411q164 0 275.5 -37.5t166 -106
t71 -169.5t16.5 -278l-5 -392q-2 -157 14.5 -241t70.5 -199zM1115 658v90q-139 -53 -440 -105q-159 -28 -232.5 -57.5t-111 -85.5t-37.5 -132q0 -114 84.5 -183.5t217.5 -69.5q78 0 154 20.5t149 61t122 98t71.5 147.5t22.5 216zM856 1574h-133l-295 347h260z" />
    <glyph glyph-name="aacute" unicode="&#xe1;" 
d="M1360 0h-178q-39 98 -51 212q-226 -243 -569 -243q-125 0 -223.5 43.5t-157.5 130.5t-59 212q0 88 27.5 157.5t83.5 122t151 90t342 71.5q275 38 389 81q0 119 -6.5 183t-44.5 120t-117 86t-195 30q-361 0 -434 -309l-166 25q77 411 599 411q164 0 275.5 -37.5t166 -106
t71 -169.5t16.5 -278l-5 -392q-2 -157 14.5 -241t70.5 -199zM1115 658v90q-139 -53 -440 -105q-159 -28 -232.5 -57.5t-111 -85.5t-37.5 -132q0 -114 84.5 -183.5t217.5 -69.5q78 0 154 20.5t149 61t122 98t71.5 147.5t22.5 216zM1022 1932l-244 -312h-132l148 312h228z" />
    <glyph glyph-name="acircumflex" unicode="&#xe2;" 
d="M1360 0h-178q-39 98 -51 212q-226 -243 -569 -243q-125 0 -223.5 43.5t-157.5 130.5t-59 212q0 88 27.5 157.5t83.5 122t151 90t342 71.5q275 38 389 81q0 119 -6.5 183t-44.5 120t-117 86t-195 30q-361 0 -434 -309l-166 25q77 411 599 411q164 0 275.5 -37.5t166 -106
t71 -169.5t16.5 -278l-5 -392q-2 -157 14.5 -241t70.5 -199zM1115 658v90q-139 -53 -440 -105q-159 -28 -232.5 -57.5t-111 -85.5t-37.5 -132q0 -114 84.5 -183.5t217.5 -69.5q78 0 154 20.5t149 61t122 98t71.5 147.5t22.5 216zM1082 1620h-186l-171 224l-171 -224h-190
l240 312h228z" />
    <glyph glyph-name="atilde" unicode="&#xe3;" 
d="M1360 0h-178q-39 98 -51 212q-226 -243 -569 -243q-125 0 -223.5 43.5t-157.5 130.5t-59 212q0 88 27.5 157.5t83.5 122t151 90t342 71.5q275 38 389 81q0 119 -6.5 183t-44.5 120t-117 86t-195 30q-361 0 -434 -309l-166 25q77 411 599 411q164 0 275.5 -37.5t166 -106
t71 -169.5t16.5 -278l-5 -392q-2 -157 14.5 -241t70.5 -199zM1115 658v90q-139 -53 -440 -105q-159 -28 -232.5 -57.5t-111 -85.5t-37.5 -132q0 -114 84.5 -183.5t217.5 -69.5q78 0 154 20.5t149 61t122 98t71.5 147.5t22.5 216zM1142 1900q0 -105 -67 -173.5t-163 -68.5
q-72 0 -210 72q-94 54 -148 54q-117 0 -136 -130h-114q9 114 77.5 178t164.5 64q74 0 214 -70q85 -44 142 -44q105 0 128 118h112z" />
    <glyph glyph-name="adieresis" unicode="&#xe4;" 
d="M1360 0h-178q-39 98 -51 212q-226 -243 -569 -243q-125 0 -223.5 43.5t-157.5 130.5t-59 212q0 88 27.5 157.5t83.5 122t151 90t342 71.5q275 38 389 81q0 119 -6.5 183t-44.5 120t-117 86t-195 30q-361 0 -434 -309l-166 25q77 411 599 411q164 0 275.5 -37.5t166 -106
t71 -169.5t16.5 -278l-5 -392q-2 -157 14.5 -241t70.5 -199zM1115 658v90q-139 -53 -440 -105q-159 -28 -232.5 -57.5t-111 -85.5t-37.5 -132q0 -114 84.5 -183.5t217.5 -69.5q78 0 154 20.5t149 61t122 98t71.5 147.5t22.5 216zM1070 1664h-186v210h186v-210zM564 1664
h-188v210h188v-210z" />
    <glyph glyph-name="aring" unicode="&#xe5;" 
d="M1360 0h-178q-39 98 -51 212q-226 -243 -569 -243q-125 0 -223.5 43.5t-157.5 130.5t-59 212q0 88 27.5 157.5t83.5 122t151 90t342 71.5q275 38 389 81q0 119 -6.5 183t-44.5 120t-117 86t-195 30q-361 0 -434 -309l-166 25q77 411 599 411q164 0 275.5 -37.5t166 -106
t71 -169.5t16.5 -278l-5 -392q-2 -157 14.5 -241t70.5 -199zM1115 658v90q-139 -53 -440 -105q-159 -28 -232.5 -57.5t-111 -85.5t-37.5 -132q0 -114 84.5 -183.5t217.5 -69.5q78 0 154 20.5t149 61t122 98t71.5 147.5t22.5 216zM524 1772q0 99 67.5 154.5t143.5 55.5
q80 0 145.5 -52t65.5 -158q0 -100 -67.5 -155.5t-143.5 -55.5t-143.5 55.5t-67.5 155.5zM594 1769q0 -52 37.5 -98.5t103.5 -46.5q59 0 100 43t41 102q0 54 -37.5 101.5t-103.5 47.5t-103.5 -47.5t-37.5 -101.5z" />
    <glyph glyph-name="ae" unicode="&#xe6;" horiz-adv-x="2472" 
d="M2326 708l-2 -50h-1042q0 -171 31 -282.5t147.5 -193.5t267.5 -82q304 0 394 302l186 -24q-144 -410 -590 -410q-320 0 -532 288q-281 -288 -600 -288q-181 0 -320.5 92.5t-139.5 285.5q0 172 130 277.5t478 150.5q220 29 372 74q0 66 2 80q0 185 -79 264.5t-275 79.5
q-359 0 -410 -274l-170 22q96 386 582 386q230 0 329.5 -55t166.5 -159q183 214 466 214q275 0 447.5 -201.5t160.5 -496.5zM2144 792q-31 480 -426 480q-222 0 -331 -144t-109 -336h866zM1110 742q-135 -64 -476 -118q-316 -50 -316 -270q0 -128 92 -195t222 -67
q157 0 286.5 79.5t160.5 180.5t31 390z" />
    <glyph glyph-name="ccedilla" unicode="&#xe7;" 
d="M1367 451q-79 -237 -227 -359.5t-394 -122.5q-189 0 -324.5 77t-219 246.5t-83.5 404.5q0 151 35.5 273.5t84 198t114.5 129t158.5 89.5t241.5 36q455 0 594 -425l-172 -26q-91 313 -428 313q-108 0 -192.5 -39.5t-144 -117.5t-89.5 -181.5t-30 -232.5q0 -277 120.5 -445
t341.5 -168q318 0 453 375zM462 -504l10 94l94 -4q254 0 254 136q0 31 -22 66q-54 56 -180 56l52 176h110l-42 -144q114 0 178 -50t64 -118q0 -73 -80.5 -148.5t-279.5 -75.5q-86 0 -158 12z" />
    <glyph glyph-name="egrave" unicode="&#xe8;" 
d="M1365 675h-1071q4 -270 127.5 -421.5t341.5 -151.5q304 0 425 338l160 -27q-82 -238 -229.5 -341t-365.5 -103q-295 0 -462 195t-167 532t168 532t464 195q604 0 609 -748zM1188 810q-38 482 -436 482q-181 0 -304.5 -125t-148.5 -357h889zM836 1574h-133l-295 347h260z
" />
    <glyph glyph-name="eacute" unicode="&#xe9;" 
d="M1365 675h-1071q4 -270 127.5 -421.5t341.5 -151.5q304 0 425 338l160 -27q-82 -238 -229.5 -341t-365.5 -103q-295 0 -462 195t-167 532t168 532t464 195q604 0 609 -748zM1188 810q-38 482 -436 482q-181 0 -304.5 -125t-148.5 -357h889zM1032 1932l-244 -312h-132
l148 312h228z" />
    <glyph glyph-name="ecircumflex" unicode="&#xea;" 
d="M1365 675h-1071q4 -270 127.5 -421.5t341.5 -151.5q304 0 425 338l160 -27q-82 -238 -229.5 -341t-365.5 -103q-295 0 -462 195t-167 532t168 532t464 195q604 0 609 -748zM1188 810q-38 482 -436 482q-181 0 -304.5 -125t-148.5 -357h889zM1122 1620h-186l-171 224
l-171 -224h-190l240 312h228z" />
    <glyph glyph-name="edieresis" unicode="&#xeb;" 
d="M1365 675h-1071q4 -270 127.5 -421.5t341.5 -151.5q304 0 425 338l160 -27q-82 -238 -229.5 -341t-365.5 -103q-295 0 -462 195t-167 532t168 532t464 195q604 0 609 -748zM1188 810q-38 482 -436 482q-181 0 -304.5 -125t-148.5 -357h889zM1090 1624h-186v210h186v-210z
M584 1624h-188v210h188v-210z" />
    <glyph glyph-name="igrave" unicode="&#xec;" horiz-adv-x="772" 
d="M480 0h-178v1374h178v-1374zM516 1574h-133l-295 347h260z" />
    <glyph glyph-name="iacute" unicode="&#xed;" horiz-adv-x="772" 
d="M480 0h-178v1374h178v-1374zM682 1932l-244 -312h-132l148 312h228z" />
    <glyph glyph-name="icircumflex" unicode="&#xee;" horiz-adv-x="772" 
d="M480 0h-178v1374h178v-1374zM742 1620h-186l-171 224l-171 -224h-190l240 312h228z" />
    <glyph glyph-name="idieresis" unicode="&#xef;" horiz-adv-x="772" 
d="M480 0h-178v1374h178v-1374zM730 1624h-186v210h186v-210zM224 1624h-188v210h188v-210z" />
    <glyph glyph-name="eth" unicode="&#xf0;" horiz-adv-x="1546" 
d="M1076 1248q-118 256 -258 410l-366 -168l-32 76l340 156q-130 120 -236 200h178q82 -63 174 -146l280 134l34 -76l-244 -116q454 -522 454 -1044q0 -316 -170.5 -512t-463.5 -196q-298 0 -465 189t-167 513q0 318 152.5 512t425.5 194q133 0 364 -126zM1214 684
q0 225 -111 397.5t-347 172.5q-226 0 -334 -170.5t-108 -421.5q0 -256 117.5 -410t332.5 -154q211 0 330.5 164t119.5 422z" />
    <glyph glyph-name="ntilde" unicode="&#xf1;" 
d="M1291 0h-165v864q0 225 -87 320.5t-236 95.5q-80 0 -149.5 -27t-128.5 -80.5t-93.5 -123.5t-48 -153t-13.5 -293v-603h-164v1392h164v-206q187 237 448 237q473 0 473 -515v-908zM1162 1900q0 -105 -67 -173.5t-163 -68.5q-72 0 -210 72q-94 54 -148 54q-117 0 -136 -130
h-114q9 114 77.5 178t164.5 64q74 0 214 -70q85 -44 142 -44q105 0 128 118h112z" />
    <glyph glyph-name="ograve" unicode="&#xf2;" 
d="M1360 693q0 -344 -162.5 -534t-459.5 -190q-143 0 -256 50t-196.5 149t-125.5 229t-42 290q0 166 36.5 296.5t110 226t185.5 154.5t289 59q284 0 452.5 -184.5t168.5 -545.5zM1191 693q0 187 -55 321.5t-153 204t-239 69.5q-217 0 -335.5 -159.5t-118.5 -428.5
q0 -266 120.5 -432.5t335.5 -166.5q100 0 179 36.5t139.5 112.5t93.5 188.5t33 254.5zM816 1574h-133l-295 347h260z" />
    <glyph glyph-name="oacute" unicode="&#xf3;" 
d="M1360 693q0 -344 -162.5 -534t-459.5 -190q-143 0 -256 50t-196.5 149t-125.5 229t-42 290q0 166 36.5 296.5t110 226t185.5 154.5t289 59q284 0 452.5 -184.5t168.5 -545.5zM1191 693q0 187 -55 321.5t-153 204t-239 69.5q-217 0 -335.5 -159.5t-118.5 -428.5
q0 -266 120.5 -432.5t335.5 -166.5q100 0 179 36.5t139.5 112.5t93.5 188.5t33 254.5zM1002 1932l-244 -312h-132l148 312h228z" />
    <glyph glyph-name="ocircumflex" unicode="&#xf4;" 
d="M1360 693q0 -344 -162.5 -534t-459.5 -190q-143 0 -256 50t-196.5 149t-125.5 229t-42 290q0 166 36.5 296.5t110 226t185.5 154.5t289 59q284 0 452.5 -184.5t168.5 -545.5zM1191 693q0 187 -55 321.5t-153 204t-239 69.5q-217 0 -335.5 -159.5t-118.5 -428.5
q0 -266 120.5 -432.5t335.5 -166.5q100 0 179 36.5t139.5 112.5t93.5 188.5t33 254.5zM1082 1600h-186l-171 224l-171 -224h-190l240 312h228z" />
    <glyph glyph-name="otilde" unicode="&#xf5;" 
d="M1360 693q0 -344 -162.5 -534t-459.5 -190q-143 0 -256 50t-196.5 149t-125.5 229t-42 290q0 166 36.5 296.5t110 226t185.5 154.5t289 59q284 0 452.5 -184.5t168.5 -545.5zM1191 693q0 187 -55 321.5t-153 204t-239 69.5q-217 0 -335.5 -159.5t-118.5 -428.5
q0 -266 120.5 -432.5t335.5 -166.5q100 0 179 36.5t139.5 112.5t93.5 188.5t33 254.5zM1132 1900q0 -105 -67 -173.5t-163 -68.5q-72 0 -210 72q-94 54 -148 54q-117 0 -136 -130h-114q9 114 77.5 178t164.5 64q74 0 214 -70q85 -44 142 -44q105 0 128 118h112z" />
    <glyph glyph-name="odieresis" unicode="&#xf6;" 
d="M1360 693q0 -344 -162.5 -534t-459.5 -190q-143 0 -256 50t-196.5 149t-125.5 229t-42 290q0 166 36.5 296.5t110 226t185.5 154.5t289 59q284 0 452.5 -184.5t168.5 -545.5zM1191 693q0 187 -55 321.5t-153 204t-239 69.5q-217 0 -335.5 -159.5t-118.5 -428.5
q0 -266 120.5 -432.5t335.5 -166.5q100 0 179 36.5t139.5 112.5t93.5 188.5t33 254.5zM1070 1644h-186v210h186v-210zM564 1644h-188v210h188v-210z" />
    <glyph glyph-name="divide" unicode="&#xf7;" horiz-adv-x="1526" 
d="M868 1252h-212v210h212v-210zM1386 868h-1246v160h1246v-160zM868 432h-212v212h212v-212z" />
    <glyph glyph-name="oslash" unicode="&#xf8;" horiz-adv-x="1698" 
d="M466 88l-142 -182l-72 56l142 186q-178 188 -178 518q0 344 165.5 542t468.5 198q189 0 414 -128l132 170l74 -54l-138 -180q166 -219 166 -528q0 -340 -166 -529t-476 -189q-209 0 -390 120zM1166 1150q-162 122 -308 122q-227 0 -342.5 -167.5t-115.5 -418.5
q0 -218 100 -400zM1228 1078l-664 -862q138 -116 284 -116q240 0 354 171.5t114 416.5q0 194 -88 390z" />
    <glyph glyph-name="ugrave" unicode="&#xf9;" 
d="M1276 0h-165v206q-183 -237 -448 -237q-472 0 -472 515v908h165v-864q0 -227 88 -322.5t235 -95.5q98 0 182.5 41t150 125.5t82.5 196.5t17 315v604h165v-1392zM816 1574h-133l-295 347h260z" />
    <glyph glyph-name="uacute" unicode="&#xfa;" 
d="M1276 0h-165v206q-183 -237 -448 -237q-472 0 -472 515v908h165v-864q0 -227 88 -322.5t235 -95.5q98 0 182.5 41t150 125.5t82.5 196.5t17 315v604h165v-1392zM952 1932l-244 -312h-132l148 312h228z" />
    <glyph glyph-name="ucircumflex" unicode="&#xfb;" 
d="M1276 0h-165v206q-183 -237 -448 -237q-472 0 -472 515v908h165v-864q0 -227 88 -322.5t235 -95.5q98 0 182.5 41t150 125.5t82.5 196.5t17 315v604h165v-1392zM1082 1620h-186l-171 224l-171 -224h-190l240 312h228z" />
    <glyph glyph-name="udieresis" unicode="&#xfc;" 
d="M1276 0h-165v206q-183 -237 -448 -237q-472 0 -472 515v908h165v-864q0 -227 88 -322.5t235 -95.5q98 0 182.5 41t150 125.5t82.5 196.5t17 315v604h165v-1392zM1030 1644h-186v210h186v-210zM524 1644h-188v210h188v-210z" />
    <glyph glyph-name="yacute" unicode="&#xfd;" horiz-adv-x="1342" 
d="M1320 1392l-549 -1392l-109 -276q-114 -289 -323 -289q-51 0 -156 26l-18 164q98 -23 147 -23q79 0 114.5 31t71.5 122l97 245l-548 1392h178l458 -1203l475 1203h162zM952 1932l-244 -312h-132l148 312h228z" />
    <glyph glyph-name="thorn" unicode="&#xfe;" horiz-adv-x="1546" 
d="M394 200v-752h-176v2474h176v-752q136 236 430 236q291 0 433.5 -211t142.5 -497q0 -284 -146 -507t-446 -223q-275 0 -414 232zM1218 700q0 231 -101 406.5t-317 175.5q-205 0 -317.5 -178.5t-112.5 -425.5q0 -257 109.5 -417.5t310.5 -160.5q206 0 317 166t111 434z
" />
    <glyph glyph-name="ydieresis" unicode="&#xff;" horiz-adv-x="1342" 
d="M1320 1392l-549 -1392l-109 -276q-114 -289 -323 -289q-51 0 -156 26l-18 164q98 -23 147 -23q79 0 114.5 31t71.5 122l97 245l-548 1392h178l458 -1203l475 1203h162zM1010 1644h-186v210h186v-210zM504 1644h-188v210h188v-210z" />
    <glyph glyph-name="OE" unicode="&#x152;" horiz-adv-x="2780" 
d="M2658 0h-1102v329q-163 -363 -578 -363q-390 0 -579 282.5t-189 715.5q0 466 196.5 729t571.5 263q202 0 357.5 -106.5t220.5 -281.5v354h1060v-166h-882v-676h812v-166h-812v-748h924v-166zM1540 978q0 366 -145.5 599t-416.5 233q-285 0 -425.5 -238t-140.5 -628
q0 -373 147 -603.5t419 -230.5q278 0 420 237t142 631z" />
    <glyph glyph-name="oe" unicode="&#x153;" horiz-adv-x="2624" 
d="M2486 656h-1064q0 -249 123 -402.5t341 -153.5q294 0 394 298l178 -26q-128 -404 -576 -404q-374 0 -552 296q-211 -296 -540 -296q-339 0 -491.5 207t-152.5 495q0 227 72.5 392.5t216.5 254.5t357 89q364 0 534 -306q193 306 530 306q326 0 478 -218t152 -532z
M2300 788q-43 486 -430 486q-196 0 -318 -139t-122 -347h870zM1242 692q0 258 -121.5 420t-336.5 162q-227 0 -341.5 -173.5t-114.5 -410.5q0 -265 120 -427.5t336 -162.5q229 0 343.5 177t114.5 415z" />
    <glyph glyph-name="Scaron" unicode="&#x160;" horiz-adv-x="1639" 
d="M122 578l181 16q22 -236 159 -356.5t360 -120.5q165 0 279 49.5t176 147t62 206.5q0 290 -503 382q-341 62 -488.5 189t-147.5 350q0 237 172.5 375t438.5 138q298 0 463.5 -133.5t181.5 -406.5l-178 -8q-32 398 -452 398q-194 0 -321.5 -93t-127.5 -254q0 -275 460 -367
q340 -69 508 -194t168 -364q0 -127 -45 -228.5t-137.5 -178.5t-217.5 -117.5t-278 -40.5q-655 0 -713 611zM1172 2422l-250 -312h-228l-240 312h190l174 -228l168 228h186z" />
    <glyph glyph-name="scaron" unicode="&#x161;" horiz-adv-x="1342" 
d="M100 377l166 27q37 -159 144 -231t264 -72q108 0 192.5 36t128.5 94.5t44 139.5q0 74 -50 127t-133.5 83t-236.5 62q-476 100 -476 390q0 181 140.5 285.5t352.5 104.5q422 0 516 -368l-160 -24q-45 147 -121.5 202.5t-231.5 55.5q-98 0 -176 -29.5t-116.5 -78.5
t-38.5 -117t35 -115.5t135.5 -85.5t256.5 -74q296 -68 386 -165.5t90 -229.5q0 -133 -64.5 -226.5t-188 -147t-290.5 -53.5q-107 0 -195 20.5t-160 63.5t-126 116t-87 210zM982 1906l-250 -312h-228l-240 312h190l174 -228l168 228h186z" />
    <glyph glyph-name="Ydieresis" unicode="&#x178;" horiz-adv-x="1639" 
d="M1627 1921l-723 -1092v-829h-182v829l-700 1092h214l587 -921l600 921h204zM1120 2124h-186v210h186v-210zM614 2124h-188v210h188v-210z" />
    <glyph glyph-name="florin" unicode="&#x192;" horiz-adv-x="1546" 
d="M1432 1916l-32 -144q-116 26 -184 26q-89 0 -136 -45t-76 -199l-34 -180h278l-20 -122h-278l-264 -1512q-33 -188 -108 -257t-212 -69q-112 0 -262 28l32 146q130 -26 178 -26q170 0 210 236l246 1454h-272l20 122h274l38 208q28 153 54.5 215t100.5 111.5t195 49.5
q134 0 252 -42z" />
    <glyph glyph-name="circumflex" unicode="&#x2c6;" horiz-adv-x="926" 
d="M822 1620h-186l-171 224l-171 -224h-190l240 312h228z" />
    <glyph glyph-name="tilde" unicode="&#x2dc;" horiz-adv-x="926" 
d="M882 1900q0 -105 -67 -173.5t-163 -68.5q-72 0 -210 72q-94 54 -148 54q-117 0 -136 -130h-114q9 114 77.5 178t164.5 64q74 0 214 -70q85 -44 142 -44q105 0 128 118h112z" />
    <glyph glyph-name="quotesinglbase" unicode="&#x201a;" horiz-adv-x="618" 
d="M218 -358l-22 38q136 80 136 320h-130v216h194v-190q0 -285 -178 -384z" />
    <glyph glyph-name="uni201E" unicode="&#x201e;" horiz-adv-x="926" 
d="M590 -358l-24 38q136 80 136 320h-130v216h194v-190q0 -290 -176 -384zM168 -358l-22 38q134 76 134 320h-128v216h194v-190q0 -178 -45.5 -258t-132.5 -126z" />
    <glyph glyph-name="uni2020" unicode="&#x2020;" horiz-adv-x="1546" 
d="M1396 1176h-544v-1646h-178v1646h-540v148h540v552h178v-552h544v-148z" />
    <glyph glyph-name="uni2021" unicode="&#x2021;" horiz-adv-x="1546" 
d="M1402 32h-546v-502h-178v502h-544v152h544v1052h-544v150h544v508h178v-508h546v-150h-546v-1052h546v-152z" />
    <glyph glyph-name="uni2030" unicode="&#x2030;" horiz-adv-x="2780" 
d="M1380 1956l-790 -2030h-106l790 2030h106zM796 1464q0 -504 -354 -504q-358 0 -358 498q0 482 354 482q358 0 358 -476zM662 1450q0 390 -220 390q-224 0 -224 -394q0 -384 228 -384q216 0 216 388zM2696 428q0 -502 -354 -502q-358 0 -358 496q0 482 354 482
q358 0 358 -476zM2562 414q0 390 -220 390q-224 0 -224 -392q0 -384 228 -384q216 0 216 386zM1780 428q0 -502 -354 -502q-356 0 -356 496q0 482 352 482q358 0 358 -476zM1648 414q0 390 -222 390q-224 0 -224 -392q0 -384 228 -384q218 0 218 386z" />
    <glyph glyph-name="uni2039" unicode="&#x2039;" horiz-adv-x="926" 
d="M694 98h-124l-404 584l404 586h124l-338 -586z" />
    <glyph glyph-name="uni203A" unicode="&#x203a;" horiz-adv-x="926" 
d="M746 694l-390 -596h-124l340 588l-340 582h124z" />
    <glyph glyph-name="uni2122" unicode="&#x2122;" horiz-adv-x="2780" 
d="M2386 884h-100v908h-66l-278 -908h-116l-290 908h-68v-908h-102v1038h212l308 -964l292 964h208v-1038zM1176 1826h-362v-942h-116v942h-358v96h836v-96z" />
    <glyph glyph-name="ring" unicode="&#x2da;" horiz-adv-x="926" 
d="M254 1772q0 99 67.5 154.5t143.5 55.5q80 0 145.5 -52t65.5 -158q0 -100 -67.5 -155.5t-143.5 -55.5t-143.5 55.5t-67.5 155.5zM324 1769q0 -52 37.5 -98.5t103.5 -46.5q59 0 100 43t41 102q0 54 -37.5 101.5t-103.5 47.5t-103.5 -47.5t-37.5 -101.5z" />
    <glyph glyph-name="ring" unicode="&#x25e6;" horiz-adv-x="926" 
d="M254 1772q0 99 67.5 154.5t143.5 55.5q80 0 145.5 -52t65.5 -158q0 -100 -67.5 -155.5t-143.5 -55.5t-143.5 55.5t-67.5 155.5zM324 1769q0 -52 37.5 -98.5t103.5 -46.5q59 0 100 43t41 102q0 54 -37.5 101.5t-103.5 47.5t-103.5 -47.5t-37.5 -101.5z" />
    <glyph glyph-name="dotlessi" unicode="&#x131;" horiz-adv-x="772" 
d="M480 0h-178v1374h178v-1374z" />
    <glyph glyph-name="caron" unicode="&#x2c7;" horiz-adv-x="926" 
d="M842 1932l-250 -312h-228l-240 312h190l174 -228l168 228h186z" />
    <glyph glyph-name="Euro" unicode="&#x20ac;" 
d="M1049 1796q-276 0 -479 -196q-187 -181 -217 -425h886l-35 -134h-872q-1 -27 -1 -72q0 -30 7 -139h830l-36 -135h-773q108 -592 671 -592q243 0 379 128v-188q-162 -76 -358 -76q-588 0 -795 489q-41 98 -71 239h-199l36 135h144l-10 138q0 46 1 73h-171l36 134h152
q69 360 294 559q231 204 587 204q241 0 406 -105l-52 -168q-158 131 -360 131z" />
    <glyph glyph-name="delete" horiz-adv-x="2048" 
 />
    <glyph glyph-name="Zcaron" unicode="&#x17d;" horiz-adv-x="1639" 
d="M1561 0h-1494v169l1242 1596h-1133v156h1357v-156l-1254 -1608h1282v-157zM1238 2422l-250 -312h-228l-240 312h190l174 -228l168 228h186z" />
    <glyph glyph-name="zcaron" unicode="&#x17e;" horiz-adv-x="1342" 
d="M1280 0h-1224v143l954 1112h-899v137h1126v-110l-966 -1139h1009v-143zM1031 1932l-250 -312h-228l-240 312h190l174 -228l168 228h186z" />
    <glyph glyph-name="uni200B" unicode="&#x200b;" horiz-adv-x="0" 
 />
    <glyph glyph-name="uni25CC" unicode="&#x25cc;" horiz-adv-x="2040" 
d="M1117 1750q0 -91 -87 -91q-85 0 -85 91q0 85 85 85q87 0 87 -85zM1117 163q0 -90 -87 -90q-85 0 -85 90q0 86 85 86q87 0 87 -86zM1850 1257q0 -89 -89 -89q-85 0 -85 89q0 85 89 85q85 0 85 -85zM1850 652q0 -86 -89 -86q-85 0 -85 86q0 88 85 88q89 0 89 -88zM817 1684
q0 -84 -89 -84q-85 0 -85 84q0 90 85 90q89 0 89 -90zM326 954q0 -86 -86 -86q-90 0 -90 86t90 86q86 0 86 -86zM556 390q0 -85 -85 -85q-86 0 -86 85q0 90 86 90q85 0 85 -90zM817 226q0 -88 -89 -88q-85 0 -85 81q0 90 85 90q89 0 89 -83zM1419 1684q0 -84 -81 -84
q-90 0 -90 84q0 90 90 90q81 0 81 -90zM385 1257q0 -89 -82 -89q-88 0 -88 89q0 85 85 85t85 -85zM1912 954q0 -86 -82 -86q-90 0 -90 86t90 86q82 0 82 -86zM385 652q0 -86 -85 -86t-85 86q0 88 85 88t85 -88zM1676 390q0 -85 -81 -85q-87 0 -87 85q0 90 87 90q81 0 81 -90
zM1676 1513q0 -81 -81 -81q-91 0 -91 81q0 87 91 87q81 0 81 -87zM556 1513q0 -81 -85 -81q-86 0 -86 79q0 89 86 89q85 0 85 -87zM1419 219q0 -81 -81 -81q-86 0 -86 81q0 90 86 90q81 0 81 -90z" />
    <glyph glyph-name="zero.alt1" 
d="M1268 811q0 -839 -522 -839q-269 0 -395.5 208.5t-126.5 625.5q0 227 33 387t98.5 261t163.5 148.5t227 49.5q522 0 522 -841zM1124 811q0 728 -375 728q-97 0 -168 -39t-117.5 -127t-69.5 -228.5t-23 -342.5q0 -170 18 -302.5t62 -224t117.5 -139t184.5 -47.5
q371 0 371 722z" />
    <glyph glyph-name="one.alt1" 
d="M884 0h-141v1380q-187 -176 -418 -265v124q353 194 464 413h95v-1652z" />
    <glyph glyph-name="two.alt1" 
d="M1280 0h-1068q9 83 37 158q29 77 134 195t303 272q70 54 123 97t90 75q76 66 129 130q55 67 78.5 130.5t23.5 133.5q0 76 -26.5 139.5t-74 109.5t-114 71.5t-146.5 25.5q-313 0 -373 -361l-147 21q12 106 54 190.5t110 143.5t159.5 90t203.5 31q108 0 200 -33.5
t159.5 -94t105.5 -144.5t38 -185q0 -120 -54 -226t-152 -197q-50 -46 -129 -110t-190 -148q-264 -201 -358 -381h884v-133z" />
    <glyph glyph-name="three.alt1" 
d="M221 418l137 21q79 -351 377 -351q84 0 154.5 29t121 81t79 124.5t28.5 159.5q0 78 -26.5 141t-74.5 107.5t-115 69t-147 24.5q-57 0 -148 -19l15 124q122 0 203.5 24.5t130 67t69 99.5t20.5 122t-23.5 119t-65.5 93t-99.5 61t-124.5 22q-265 0 -349 -324l-142 25
q103 414 490 414q105 0 190 -29.5t146 -84t94 -132.5t33 -174q0 -233 -243 -345q321 -83 321 -401q0 -115 -39 -209.5t-110 -162t-169.5 -105t-217.5 -37.5q-423 0 -515 446z" />
    <glyph glyph-name="four.alt1" 
d="M1311 411h-226v-411h-138v411h-766v126l794 1115h110v-1115h226v-126zM947 537v885l-629 -885h629z" />
    <glyph glyph-name="five.alt1" 
d="M216 408l142 17q70 -336 381 -336q69 0 138 26.5t124.5 81t90.5 137.5t35 196q0 88 -28 163t-78.5 130t-120 85.5t-152.5 30.5q-195 0 -380 -181l-119 16l158 856h793v-130h-688l-105 -563q184 127 363 127q107 0 199.5 -41t160.5 -112t107 -166t39 -203
q0 -116 -40.5 -219.5t-114 -181.5t-176.5 -123.5t-228 -45.5q-392 0 -501 436z" />
    <glyph glyph-name="six.alt1" 
d="M1243 1268l-140 -14q-74 282 -312 282q-89 0 -158 -35t-120 -96t-83.5 -145t-48.5 -181q-8 -51 -14.5 -119.5t-11.5 -156.5q179 239 443 239q106 0 194.5 -38t152.5 -106t100 -162t36 -205q0 -123 -38.5 -226t-107.5 -177t-164 -115t-207 -41q-277 0 -420 212
q-36 54 -60.5 114.5t-40.5 130.5q-31 137 -31 338q0 291 62 480q61 188 196 297q133 108 327 108q363 0 446 -384zM1127 516q0 88 -26 161t-72.5 125.5t-111.5 82t-144 29.5q-81 0 -151 -28.5t-121.5 -79.5t-81 -121.5t-29.5 -153.5q0 -87 28 -167.5t78 -141.5t119 -97.5
t152 -36.5q80 0 146.5 33.5t114 92t73.5 136t26 166.5z" />
    <glyph glyph-name="seven.alt1" 
d="M1269 1539q-311 -358 -463 -730q-150 -370 -183 -809h-152q12 191 49 368t98 345q30 84 68.5 166.5t84.5 164.5t125 196.5t193 263.5h-865v126h1045v-91z" />
    <glyph glyph-name="eight.alt1" 
d="M516 889q-236 107 -236 338q0 92 35 170t97 134.5t147 88.5t186 32q102 0 187.5 -32t147.5 -88.5t97 -134.5t35 -170q0 -231 -236 -338q302 -104 302 -413q0 -125 -44 -219.5t-117.5 -157.5t-170 -95t-201.5 -32q-157 0 -272 58t-187 180q-72 121 -72 266q0 147 69 251
q69 103 233 162zM1131 464q0 82 -27 148.5t-77 112.5t-121.5 71t-160.5 25q-90 0 -161.5 -25t-122 -71t-77 -112.5t-26.5 -148.5q0 -86 27.5 -155.5t78.5 -118t122.5 -75t158.5 -26.5t158.5 26.5t122 75t78 118t27.5 155.5zM1068 1226q0 68 -24 125t-67 98.5t-102.5 64.5
t-129.5 23q-72 0 -131 -23.5t-102 -65t-66.5 -98.5t-23.5 -124q0 -65 25 -117.5t68.5 -90.5t102.5 -58.5t127 -20.5q67 0 126 21t102.5 59t69 91t25.5 116z" />
    <glyph glyph-name="nine.alt1" 
d="M250 353l140 17q73 -283 311 -283q67 0 127 24.5t109.5 66.5t86 99t56.5 122q20 67 35 171.5t23 249.5q-179 -239 -444 -239q-105 0 -193.5 38.5t-152.5 106.5t-99.5 161t-35.5 203q0 122 38.5 225t107 178t163.5 117t208 42q169 0 289 -81q119 -81 190 -249t71 -465
q0 -292 -63 -481q-32 -95 -80 -169t-115 -128q-134 -107 -327 -107q-363 0 -445 381zM1105 1092q0 88 -28 168t-78.5 141.5t-120.5 98t-153 36.5q-80 0 -146.5 -34t-113.5 -92.5t-73 -136.5t-26 -166t25 -161t71.5 -125.5t111.5 -82t145 -29.5q82 0 153 29t122.5 80.5
t81 121.5t29.5 152z" />
    <glyph glyph-name="uni0E47.sm" horiz-adv-x="0" 
d="M-78 3538q-149 -158 -362 -158q-48 0 -108 5t-115 10.5t-96.5 10.5t-50.5 5q-96 0 -147 -50.5t-51 -147.5q0 -105 99 -187q16 40 42.5 88t63.5 105q156 -220 271 -238q-50 55 -50 111q0 41 14 75.5t38.5 59.5t58.5 39t74 14q43 0 79.5 -15t62.5 -42t40.5 -65t14.5 -84
q0 -212 -277 -212q-40 0 -85 16.5t-87 41t-77.5 53t-55.5 53.5q-12 0 -78 -164q-279 109 -279 353q0 323 373 323q13 0 49 -3.5t82.5 -7t97 -7t92.5 -3.5q89 0 154 28.5t119 90.5zM-307 3083q0 91 -90 91q-82 0 -82 -86q0 -91 90 -91q82 0 82 86z" />
    <glyph glyph-name="uni0E48.small" horiz-adv-x="0" 
d="M-250 3503v-573h-156v573h156z" />
    <glyph glyph-name="uni0E49.small" horiz-adv-x="0" 
d="M92 3441q-101 -292 -310 -416q-211 -125 -472 -125q-82 0 -144 13l-8 86q186 91 279 258q-33 -45 -103 -45q-48 0 -86.5 17.5t-65.5 47.5t-42 70t-15 86q0 44 17 82.5t46 66.5t67.5 44t82.5 16q50 0 93 -20t74.5 -54.5t49 -82t17.5 -101.5q0 -258 -234 -381
q215 0 385 131q169 130 246 360zM-555 3425q0 102 -103 102q-106 0 -106 -102q0 -107 106 -107q103 0 103 107z" />
    <glyph glyph-name="uni0E4A.small" horiz-adv-x="0" 
d="M-10 3506q0 -162 -28.5 -276.5t-92.5 -187t-167.5 -105.5t-252.5 -33v74q156 84 156 254q0 139 -127 139q-92 0 -119 -90h-49q-39 94 -166 94q-28 0 -57 -10t-52 -31t-38 -52.5t-15 -74.5q0 -68 17 -82q18 119 142 119q34 0 67 -13t58 -36.5t40.5 -55t15.5 -67.5
q0 -37 -13.5 -68.5t-37.5 -54.5t-56 -36t-69 -13q-51 0 -97.5 23.5t-82.5 64t-57 95t-21 116.5q0 59 16.5 113t47.5 95.5t75 66t100 24.5q121 0 203 -94q61 94 159 94q48 0 90 -16.5t73.5 -48t49.5 -76.5t18 -102q0 -130 -91 -240q112 33 171 132q59 101 59 359h131z
M-780 3064q0 86 -86 86q-66 0 -66 -70q0 -86 86 -86q66 0 66 70z" />
    <glyph glyph-name="uni0E4B.small" horiz-adv-x="0" 
d="M37 3216h-283v-286h-143v286h-283v144h283v282h143v-282h283v-144z" />
    <glyph glyph-name="uni0E4C.small" horiz-adv-x="0" 
d="M217 3480q-146 -127 -508 -127q-86 0 -123 -21q184 -25 184 -205q0 -50 -17.5 -91.5t-48 -71t-72 -46t-89.5 -16.5q-43 0 -83.5 15.5t-71.5 45.5t-49.5 73.5t-18.5 99.5q0 79 32 140.5t90.5 104t139.5 65.5t180 25q245 4 393 119zM-344 3115q0 119 -119 119
q-99 0 -99 -98q0 -119 113 -119q105 0 105 98z" />
    <glyph glyph-name="uni0E4D.small" horiz-adv-x="0" 
d="M1 3209q0 -56 -21 -111.5t-60.5 -99t-96.5 -70.5t-130 -27q-65 0 -121 24t-97.5 65.5t-65.5 97.5t-24 121q0 64 24 120.5t65.5 98t97.5 65.5t121 24q64 0 120.5 -24t98 -65.5t65.5 -98t24 -120.5zM-139 3209q0 35 -13 66t-35.5 53.5t-53.5 35.5t-66 13t-66 -13
t-53.5 -35.5t-35.5 -53.5t-13 -66t13 -66t35.5 -53.5t53.5 -35.5t66 -13q31 0 61 11.5t54 33t38.5 53t14.5 70.5z" />
    <glyph glyph-name="uni0E4E.small" horiz-adv-x="0" 
d="M114 3606l-85 -55q-33 6 -56 8.5t-40 2.5q-46 0 -92.5 -11t-84 -30.5t-61.5 -45.5t-24 -55q0 -26 21.5 -47.5t54.5 -37.5t73.5 -24.5t79.5 -8.5l-41 -84q-75 0 -140.5 -13.5t-114 -39.5t-76 -63.5t-27.5 -86.5q0 -86 148 -86q112 0 177 45l67 -52q-104 -85 -281 -85
q-244 0 -244 181q0 54 30.5 101t79 82.5t109.5 56.5q59 20 118 23q-25 1 -52 14q-28 13 -50.5 33.5t-37 45.5t-14.5 52q0 47 29.5 86t81 66.5t122 42.5t153.5 15q117 0 177 -30z" />
  </font>
</defs>
</svg>
